<svg width="12" height="12" viewBox="0 0 12 12" fill="none" xmlns="http://www.w3.org/2000/svg">
<path fill-rule="evenodd" clip-rule="evenodd" d="M3.37653 9.71967C3.08364 10.0126 3.08364 10.4874 3.37653 10.7803C3.66942 11.0732 4.1443 11.0732 4.43719 10.7803L8.78033 6.43719C8.79864 6.41888 8.8158 6.39987 8.83181 6.38023C8.90976 6.28466 8.96062 6.17436 8.98437 6.05957C8.99479 6.00924 9 5.95805 9 5.90686C9 5.71492 8.92678 5.52298 8.78033 5.37653L4.43719 1.03339C4.1443 0.740496 3.66942 0.740497 3.37653 1.03339C3.08364 1.32628 3.08364 1.80116 3.37653 2.09405L7.18934 5.90686L3.37653 9.71967Z" fill="#727A82"/>
</svg>
