<svg width="28" height="28" viewBox="0 0 28 28" fill="none" xmlns="http://www.w3.org/2000/svg">
<path d="M15.75 18.0834C15.75 15.8835 15.75 14.7835 16.4334 14.1001C17.1168 13.4167 18.2168 13.4167 20.4167 13.4167C22.6166 13.4167 23.7165 13.4167 24.3999 14.1001C25.0833 14.7835 25.0833 15.8835 25.0833 18.0834V20.4167C25.0833 22.6166 25.0833 23.7165 24.3999 24.3999C23.7165 25.0834 22.6166 25.0834 20.4167 25.0834C18.2168 25.0834 17.1168 25.0834 16.4334 24.3999C15.75 23.7165 15.75 22.6166 15.75 20.4167V18.0834Z" stroke="#2C3036" stroke-width="2"/>
<path d="M15.75 6.41669C15.75 5.32949 15.75 4.78589 15.9276 4.35709C16.1644 3.78536 16.6187 3.33112 17.1904 3.0943C17.6192 2.91669 18.1628 2.91669 19.25 2.91669H21.5833C22.6705 2.91669 23.2141 2.91669 23.6429 3.0943C24.2147 3.33112 24.6689 3.78536 24.9057 4.35709C25.0833 4.78589 25.0833 5.32949 25.0833 6.41669C25.0833 7.50388 25.0833 8.04748 24.9057 8.47628C24.6689 9.04801 24.2147 9.50225 23.6429 9.73907C23.2141 9.91669 22.6705 9.91669 21.5833 9.91669H19.25C18.1628 9.91669 17.6192 9.91669 17.1904 9.73907C16.6187 9.50225 16.1644 9.04801 15.9276 8.47628C15.75 8.04748 15.75 7.50388 15.75 6.41669Z" stroke="#2C3036" stroke-width="2"/>
<path d="M2.33334 9.91669C2.33334 12.1166 2.33334 13.2165 3.01676 13.8999C3.70018 14.5834 4.80012 14.5834 7.00001 14.5834C9.1999 14.5834 10.2998 14.5834 10.9833 13.8999C11.6667 13.2165 11.6667 12.1166 11.6667 9.91669V7.58335C11.6667 5.38347 11.6667 4.28352 10.9833 3.6001C10.2998 2.91669 9.1999 2.91669 7.00001 2.91669C4.80012 2.91669 3.70018 2.91669 3.01676 3.6001C2.33334 4.28352 2.33334 5.38347 2.33334 7.58335V9.91669Z" stroke="#2C3036" stroke-width="2"/>
<path d="M2.33334 21.5833C2.33334 22.6705 2.33334 23.2141 2.51096 23.6429C2.74778 24.2146 3.20202 24.6689 3.77375 24.9057C4.20255 25.0833 4.74615 25.0833 5.83334 25.0833H8.16668C9.25387 25.0833 9.79747 25.0833 10.2263 24.9057C10.798 24.6689 11.2522 24.2146 11.4891 23.6429C11.6667 23.2141 11.6667 22.6705 11.6667 21.5833C11.6667 20.4961 11.6667 19.9525 11.4891 19.5237C11.2522 18.952 10.798 18.4977 10.2263 18.2609C9.79747 18.0833 9.25387 18.0833 8.16668 18.0833H5.83334C4.74615 18.0833 4.20255 18.0833 3.77375 18.2609C3.20202 18.4977 2.74778 18.952 2.51096 19.5237C2.33334 19.9525 2.33334 20.4961 2.33334 21.5833Z" stroke="#2C3036" stroke-width="2"/>
</svg>
