<svg width="14" height="14" viewBox="0 0 14 14" fill="none" xmlns="http://www.w3.org/2000/svg">
<circle cx="7" cy="7" r="6.5" fill="#E3F4FD" stroke="#AED6EC"/>
<path d="M6.43652 8.8418C6.43652 8.61719 6.44141 8.42676 6.45117 8.27051C6.46419 8.11426 6.49186 7.97266 6.53418 7.8457C6.5765 7.72201 6.63997 7.60807 6.72461 7.50391C6.80924 7.39648 6.92806 7.28255 7.08105 7.16211C7.19173 7.0612 7.30241 6.9554 7.41309 6.84473C7.52376 6.73079 7.62467 6.61361 7.71582 6.49316C7.80371 6.37598 7.87533 6.25553 7.93066 6.13184C7.986 6.00814 8.01367 5.88444 8.01367 5.76074C8.01367 5.611 7.99251 5.48242 7.9502 5.375C7.90788 5.26432 7.84766 5.17318 7.76953 5.10156C7.68815 5.03646 7.58887 4.98763 7.47168 4.95508C7.35775 4.92253 7.22591 4.90625 7.07617 4.90625C6.95898 4.90625 6.84505 4.92253 6.73438 4.95508C6.6237 4.98438 6.52604 5.0332 6.44141 5.10156C6.35352 5.16992 6.2819 5.25781 6.22656 5.36523C6.17448 5.47266 6.14681 5.60124 6.14355 5.75098H4.78125C4.78451 5.41895 4.84635 5.13086 4.9668 4.88672C5.08724 4.63932 5.25 4.43424 5.45508 4.27148C5.66016 4.10872 5.90104 3.98828 6.17773 3.91016C6.45443 3.82878 6.75391 3.78809 7.07617 3.78809C7.4375 3.78809 7.76139 3.82878 8.04785 3.91016C8.33431 3.99154 8.57682 4.11198 8.77539 4.27148C8.9707 4.43424 9.12044 4.63444 9.22461 4.87207C9.32878 5.1097 9.38086 5.38477 9.38086 5.69727C9.38086 5.92839 9.3418 6.13997 9.26367 6.33203C9.18555 6.52083 9.08464 6.69661 8.96094 6.85938C8.83724 7.02539 8.69564 7.18327 8.53613 7.33301C8.37988 7.47949 8.22201 7.62272 8.0625 7.7627C7.96484 7.86035 7.88835 7.94661 7.83301 8.02148C7.77767 8.09635 7.73861 8.17285 7.71582 8.25098C7.68978 8.3291 7.6735 8.41536 7.66699 8.50977C7.66048 8.60091 7.65723 8.71159 7.65723 8.8418H6.43652ZM6.23633 10.3213C6.23633 10.1064 6.30632 9.92741 6.44629 9.78418C6.58626 9.6377 6.77995 9.56445 7.02734 9.56445C7.26823 9.56445 7.46029 9.6377 7.60352 9.78418C7.75 9.92741 7.82324 10.1064 7.82324 10.3213C7.82324 10.5296 7.75 10.7054 7.60352 10.8486C7.46029 10.9886 7.26823 11.0586 7.02734 11.0586C6.77995 11.0586 6.58626 10.9886 6.44629 10.8486C6.30632 10.7054 6.23633 10.5296 6.23633 10.3213Z" fill="#3A8DFD"/>
</svg>
