<svg width="16" height="16" viewBox="0 0 16 16" fill="none" xmlns="http://www.w3.org/2000/svg">
<path d="M13.7173 5.01503L11.0138 2.3054C10.8318 2.11873 10.5848 2.00944 10.3242 2.00026C10.1919 1.99721 10.0605 2.02107 9.93773 2.07037C9.81499 2.11968 9.70355 2.19341 9.61016 2.28709L7.99903 3.89212L2.28683 9.61042C2.19584 9.70072 2.12364 9.80816 2.07441 9.92653C2.02518 10.0449 1.99989 10.1718 2 10.3V13.028C2 13.2869 2.10288 13.5353 2.28599 13.7184C2.46911 13.9015 2.71748 14.0044 2.97644 14.0044H5.70439C5.96305 14.0033 6.21085 13.9002 6.394 13.7176L13.7173 6.39426C13.8985 6.21043 14 5.96272 14 5.70464C14 5.44657 13.8985 5.19886 13.7173 5.01503ZM11.7644 6.96792L9.0365 4.23998L10.2998 2.9767L13.0277 5.70464L11.7644 6.96792Z" fill="white"/>
</svg>
