<svg width="16" height="16" viewBox="0 0 16 16" fill="none" xmlns="http://www.w3.org/2000/svg">
<path d="M13.3175 7.6256L7.96685 12.9763C7.31135 13.6317 6.42231 14 5.4953 14C4.56829 14 3.67924 13.6317 3.02375 12.9763C2.36825 12.3208 2 11.4317 2 10.5047C2 9.57769 2.36825 8.68865 3.02375 8.03315L8.3744 2.6825C8.8114 2.2455 9.4041 2 10.0221 2C10.6401 2 11.2328 2.2455 11.6698 2.6825C12.1068 3.1195 12.3523 3.71219 12.3523 4.3302C12.3523 4.94821 12.1068 5.5409 11.6698 5.9779L6.31332 11.3286C6.09483 11.5471 5.79848 11.6698 5.48948 11.6698C5.18047 11.6698 4.88412 11.5471 4.66563 11.3286C4.44713 11.1101 4.32438 10.8137 4.32438 10.5047C4.32438 10.1957 4.44713 9.89935 4.66563 9.68085L9.60872 4.74358" stroke="#090909" stroke-linecap="round" stroke-linejoin="round"/>
</svg>
