<svg width="20" height="20" viewBox="0 0 20 20" fill="none" xmlns="http://www.w3.org/2000/svg">
<circle cx="10" cy="10" r="10" fill="#3A8DFD"/>
<rect width="20" height="20" rx="10" fill="#E9EAEB"/>
<path fill-rule="evenodd" clip-rule="evenodd" d="M7.59797 9.10613C7.8097 9.0674 8.02065 8.98505 8.22017 8.85616L8.67627 8.56153C9.00482 8.3493 9.12948 7.8936 8.9547 7.54369L7.96318 5.55855C7.78841 5.20864 7.38039 5.09702 7.05184 5.30925L6.59574 5.60388C5.95335 6.01884 5.61465 6.79647 5.68806 7.54043C5.61718 8.629 6.26832 10.2683 8.04995 12.05C9.93559 13.9356 11.6618 14.5549 12.7444 14.3921C13.4193 14.3877 14.0906 14.0552 14.4657 13.4746L14.7603 13.0185C14.9725 12.69 14.8609 12.2819 14.511 12.1072L12.5259 11.1156C12.1759 10.9409 11.7202 11.0655 11.508 11.3941L11.2134 11.8502C11.0806 12.0557 10.9972 12.2734 10.96 12.4915C10.2337 12.2654 9.48528 11.8966 8.8443 11.2556C8.19339 10.6047 7.82317 9.84297 7.59797 9.10613Z" fill="#090909"/>
</svg>
