<svg width="16" height="16" viewBox="0 0 16 16" fill="none" xmlns="http://www.w3.org/2000/svg">
<path d="M5.97465 12.6072L6.28419 12.2145L5.97465 12.6072ZM8.00016 3.66703L7.63992 4.01376C7.73418 4.11169 7.86424 4.16703 8.00016 4.16703C8.13609 4.16703 8.26615 4.11169 8.36041 4.01376L8.00016 3.66703ZM10.0257 12.6072L10.3352 12.9999L10.0257 12.6072ZM6.28419 12.2145C5.27376 11.418 4.16887 10.6401 3.29235 9.65312C2.43297 8.68543 1.8335 7.55627 1.8335 6.09134H0.833496C0.833496 7.86836 1.57383 9.22397 2.54464 10.3171C3.49831 11.391 4.71401 12.2501 5.66511 12.9999L6.28419 12.2145ZM1.8335 6.09134C1.8335 4.65743 2.64374 3.45495 3.74973 2.9494C4.82421 2.45826 6.26794 2.58832 7.63992 4.01376L8.36041 3.32029C6.7325 1.62895 4.84289 1.3502 3.334 2.03991C1.85664 2.71522 0.833496 4.28329 0.833496 6.09134H1.8335ZM5.66511 12.9999C6.0066 13.2691 6.37319 13.5561 6.74471 13.7732C7.11607 13.9902 7.5399 14.1666 8.00016 14.1666V13.1666C7.79376 13.1666 7.55092 13.0861 7.24924 12.9098C6.94771 12.7336 6.63488 12.491 6.28419 12.2145L5.66511 12.9999ZM10.3352 12.9999C11.2863 12.2501 12.502 11.391 13.4557 10.3171C14.4265 9.22397 15.1668 7.86836 15.1668 6.09134H14.1668C14.1668 7.55627 13.5674 8.68543 12.708 9.65312C11.8315 10.6401 10.7266 11.418 9.71613 12.2145L10.3352 12.9999ZM15.1668 6.09134C15.1668 4.28329 14.1437 2.71522 12.6663 2.03991C11.1574 1.3502 9.26783 1.62895 7.63992 3.32029L8.36041 4.01376C9.73239 2.58832 11.1761 2.45826 12.2506 2.9494C13.3566 3.45495 14.1668 4.65743 14.1668 6.09134H15.1668ZM9.71613 12.2145C9.36544 12.491 9.05262 12.7336 8.75109 12.9098C8.4494 13.0861 8.20656 13.1666 8.00016 13.1666V14.1666C8.46043 14.1666 8.88426 13.9902 9.25561 13.7732C9.62713 13.5561 9.99373 13.2691 10.3352 12.9999L9.71613 12.2145Z" fill="#8A919A"/>
</svg>
