<svg width="12" height="12" viewBox="0 0 12 12" fill="none" xmlns="http://www.w3.org/2000/svg">
<path fill-rule="evenodd" clip-rule="evenodd" d="M2.11091 2.11091C3.10568 1.11616 4.48137 0.5 6 0.5C7.51863 0.5 8.89432 1.11616 9.88908 2.11091C10.8838 3.10568 11.5 4.48136 11.5 6C11.5 7.51864 10.8838 8.89432 9.88908 9.88908C8.89432 10.8838 7.51864 11.5 6 11.5C4.48136 11.5 3.10568 10.8838 2.11091 9.88908C1.11616 8.89432 0.5 7.51863 0.5 6C0.5 4.48137 1.11616 3.10568 2.11091 2.11091ZM6 2.5C6.27614 2.5 6.5 2.72386 6.5 3V7C6.5 7.27614 6.27614 7.5 6 7.5C5.72386 7.5 5.5 7.27614 5.5 7V3C5.5 2.72386 5.72386 2.5 6 2.5ZM6 9.25C6.34517 9.25 6.625 8.97017 6.625 8.625C6.625 8.27983 6.34517 8 6 8C5.65483 8 5.375 8.27983 5.375 8.625C5.375 8.97017 5.65483 9.25 6 9.25Z" fill="#090909"/>
</svg>
