<svg width="16" height="16" viewBox="0 0 16 16" fill="none" xmlns="http://www.w3.org/2000/svg">
<path d="M6.65 8C6.65 7.25441 7.25442 6.65 8 6.65C8.74558 6.65 9.35 7.25441 9.35 8C9.35 8.74558 8.74558 9.35 8 9.35C7.25442 9.35 6.65 8.74558 6.65 8Z" fill="#2C3036"/>
<path fill-rule="evenodd" clip-rule="evenodd" d="M2 8C2 8.98362 2.25498 9.31488 2.76494 9.9774C3.78318 11.3003 5.49087 12.8 8 12.8C10.5091 12.8 12.2168 11.3003 13.2351 9.9774C13.745 9.31488 14 8.98362 14 8C14 7.01637 13.745 6.68511 13.2351 6.0226C12.2168 4.69973 10.5091 3.2 8 3.2C5.49087 3.2 3.78318 4.69973 2.76494 6.0226C2.25498 6.68511 2 7.01637 2 8ZM8 5.75C6.75736 5.75 5.75 6.75736 5.75 8C5.75 9.24264 6.75736 10.25 8 10.25C9.24264 10.25 10.25 9.24264 10.25 8C10.25 6.75736 9.24264 5.75 8 5.75Z" fill="#2C3036"/>
</svg>
