<svg width="16" height="16" viewBox="0 0 16 16" fill="none" xmlns="http://www.w3.org/2000/svg">
<path d="M2.66666 14.6667H13.3333" stroke="#1C274C" stroke-width="1.5" stroke-linecap="round"/>
<path d="M9.25869 2.44196L9.75303 1.94763C10.5721 1.12858 11.9 1.12858 12.719 1.94763C13.5381 2.76667 13.5381 4.0946 12.719 4.91364L12.2247 5.40798M9.25869 2.44196C9.25869 2.44196 9.32048 3.49242 10.2474 4.4193C11.1742 5.34618 12.2247 5.40798 12.2247 5.40798M9.25869 2.44196L4.71403 6.98662C4.40621 7.29444 4.2523 7.44835 4.11994 7.61806C3.9638 7.81824 3.82993 8.03484 3.72071 8.26402C3.62811 8.45831 3.55928 8.6648 3.42162 9.07778L2.83829 10.8278M12.2247 5.40798L7.68004 9.95264C7.37222 10.2605 7.21831 10.4144 7.04861 10.5467C6.84843 10.7029 6.63183 10.8367 6.40264 10.946C6.20836 11.0386 6.00187 11.1074 5.58889 11.245L3.83888 11.8284M3.83888 11.8284L3.41111 11.971C3.20787 12.0387 2.98381 11.9858 2.83233 11.8343C2.68085 11.6829 2.62795 11.4588 2.6957 11.2556L2.83829 10.8278M3.83888 11.8284L2.83829 10.8278" stroke="#1C274C" stroke-width="1.5"/>
</svg>
