<svg width="28" height="28" viewBox="0 0 28 28" fill="none" xmlns="http://www.w3.org/2000/svg">
<path d="M24.3056 10.5H21.2692C19.1875 10.5 17.5 12.067 17.5 14C17.5 15.933 19.1875 17.5 21.2692 17.5H24.3056C24.4028 17.5 24.4514 17.5 24.4924 17.4975C25.1216 17.4592 25.6227 16.9939 25.664 16.4096C25.6667 16.3715 25.6667 16.3264 25.6667 16.2361V11.7639C25.6667 11.6736 25.6667 11.6285 25.664 11.5904C25.6227 11.0061 25.1216 10.5408 24.4924 10.5025C24.4514 10.5 24.4028 10.5 24.3056 10.5Z" stroke="#2C3036" stroke-width="2"/>
<path d="M7 9.33331H11.6667" stroke="#2C3036" stroke-width="2" stroke-linecap="round" stroke-linejoin="round"/>
<circle cx="21" cy="14" r="1.16667" fill="#2C3036"/>
<path d="M24.4592 10.5C24.3685 8.31567 24.076 6.97639 23.1332 6.03352C21.7663 4.66669 19.5665 4.66669 15.1667 4.66669L11.6667 4.66669C7.2669 4.66669 5.06701 4.66669 3.70018 6.03352C2.33334 7.40036 2.33334 9.60025 2.33334 14C2.33334 18.3998 2.33334 20.5997 3.70018 21.9665C5.06701 23.3334 7.2669 23.3334 11.6667 23.3334H15.1667C19.5665 23.3334 21.7663 23.3334 23.1332 21.9665C24.076 21.0237 24.3685 19.6844 24.4592 17.5" stroke="#2C3036" stroke-width="2"/>
</svg>
