<svg width="32" height="32" viewBox="0 0 32 32" fill="none" xmlns="http://www.w3.org/2000/svg">
<path opacity="0.32" d="M28 21.331V13.331V13.331C28 9.55975 28 7.67414 26.8284 6.50257C25.8039 5.47806 24.2334 5.34946 21.3333 5.33331H10.6667C7.76663 5.34946 6.19608 5.47806 5.17157 6.50257C4 7.67414 4 9.55976 4 13.331V21.331C4 25.1022 4 26.9879 5.17157 28.1594C6.34315 29.331 8.22876 29.331 12 29.331H20C23.7712 29.331 25.6569 29.331 26.8284 28.1594C28 26.9879 28 25.1022 28 21.331V21.331Z" fill="#090909"/>
<path d="M10.6667 4.66669C10.6667 3.56212 11.5621 2.66669 12.6667 2.66669H19.3333C20.4379 2.66669 21.3333 3.56212 21.3333 4.66669V6.00002C21.3333 7.10459 20.4379 8.00002 19.3333 8.00002H12.6667C11.5621 8.00002 10.6667 7.10459 10.6667 6.00002V4.66669Z" fill="#090909"/>
<path fill-rule="evenodd" clip-rule="evenodd" d="M8.33333 14C8.33333 13.4477 8.78104 13 9.33333 13H22.6667C23.2189 13 23.6667 13.4477 23.6667 14C23.6667 14.5523 23.2189 15 22.6667 15H9.33333C8.78104 15 8.33333 14.5523 8.33333 14ZM9.66666 18.6667C9.66666 18.1144 10.1144 17.6667 10.6667 17.6667H21.3333C21.8856 17.6667 22.3333 18.1144 22.3333 18.6667C22.3333 19.219 21.8856 19.6667 21.3333 19.6667H10.6667C10.1144 19.6667 9.66666 19.219 9.66666 18.6667ZM11 23.3333C11 22.781 11.4477 22.3333 12 22.3333H20C20.5523 22.3333 21 22.781 21 23.3333C21 23.8856 20.5523 24.3333 20 24.3333H12C11.4477 24.3333 11 23.8856 11 23.3333Z" fill="#090909"/>
</svg>
