<svg width="32" height="32" viewBox="0 0 32 32" fill="none" xmlns="http://www.w3.org/2000/svg">
<path fill-rule="evenodd" clip-rule="evenodd" d="M13.8715 29.9743L14.2382 29.3546C14.826 28.3616 15.1199 27.8651 15.5881 27.5882C16.0562 27.3112 16.6669 27.2917 17.8882 27.2527C19.0334 27.216 19.803 27.1161 20.4611 26.8435C21.8467 26.2696 22.9475 25.1688 23.5214 23.7832C23.9518 22.7441 23.9518 21.4267 23.9518 18.792V17.661C23.9518 13.959 23.9518 12.108 23.1186 10.7483C22.6523 9.98739 22.0126 9.34768 21.2517 8.88142C19.892 8.04816 18.041 8.04816 14.339 8.04816H10.9462C7.24419 8.04816 5.39319 8.04816 4.03342 8.88142C3.27256 9.34768 2.63286 9.98739 2.1666 10.7483C1.33334 12.108 1.33334 13.959 1.33334 17.661V18.792C1.33334 21.4267 1.33334 22.7441 1.76377 23.7832C2.33768 25.1688 3.43849 26.2696 4.82403 26.8435C5.48211 27.1161 6.25177 27.216 7.39693 27.2527C8.61824 27.2917 9.2289 27.3112 9.69705 27.5882C10.1652 27.8651 10.4591 28.3616 11.0469 29.3546L11.4136 29.9743C11.96 30.8974 13.3251 30.8974 13.8715 29.9743ZM17.5904 19.3574C18.3711 19.3574 19.004 18.7245 19.004 17.9437C19.004 17.163 18.3711 16.5301 17.5904 16.5301C16.8096 16.5301 16.1767 17.163 16.1767 17.9437C16.1767 18.7245 16.8096 19.3574 17.5904 19.3574ZM14.0562 17.9437C14.0562 18.7245 13.4233 19.3574 12.6426 19.3574C11.8618 19.3574 11.2289 18.7245 11.2289 17.9437C11.2289 17.163 11.8618 16.5301 12.6426 16.5301C13.4233 16.5301 14.0562 17.163 14.0562 17.9437ZM7.69478 19.3574C8.47552 19.3574 9.10844 18.7245 9.10844 17.9437C9.10844 17.163 8.47552 16.5301 7.69478 16.5301C6.91404 16.5301 6.28113 17.163 6.28113 17.9437C6.28113 18.7245 6.91404 19.3574 7.69478 19.3574Z" fill="#090909"/>
<path opacity="0.32" d="M20.648 1.33331C22.3372 1.3333 23.6804 1.33329 24.7577 1.43572C25.8623 1.54075 26.7963 1.7609 27.6282 2.27074C28.4842 2.79528 29.2039 3.51496 29.7284 4.37093C30.2383 5.2029 30.4584 6.13685 30.5634 7.24147C30.6659 8.31874 30.6659 9.66208 30.6658 11.3512V12.5049C30.6658 13.707 30.6659 14.6633 30.6129 15.4387C30.5588 16.2319 30.4458 16.9131 30.1816 17.5509C29.536 19.1097 28.2976 20.3481 26.7388 20.9937C26.6998 21.0099 26.6607 21.0255 26.6213 21.0405C26.4332 21.1124 26.2719 21.1741 26.1304 21.22H23.9302C23.9518 20.5546 23.9518 19.7622 23.9518 18.7907V17.6597C23.9518 13.9577 23.9518 12.1067 23.1185 10.747C22.6523 9.98609 22.0126 9.34638 21.2517 8.88012C19.892 8.04686 18.041 8.04685 14.339 8.04685H10.9462C9.63231 8.04685 8.55158 8.04685 7.64323 8.08411V5.88358C7.68684 5.73244 7.74659 5.5592 7.81673 5.35585C7.93602 5.00999 8.08679 4.6829 8.27797 4.37093C8.8025 3.51496 9.52218 2.79528 10.3781 2.27074C11.2101 1.7609 12.1441 1.54075 13.2487 1.43572C14.326 1.33329 15.6692 1.3333 17.3584 1.33331H20.648Z" fill="#090909"/>
</svg>
