<svg width="16" height="16" viewBox="0 0 16 16" fill="none" xmlns="http://www.w3.org/2000/svg">
<path d="M8.25383 11.6202L11.1613 13.4662C11.5363 13.7027 11.9978 13.3508 11.8882 12.9182L11.0459 9.6069C11.0232 9.51511 11.0268 9.41876 11.0564 9.32895C11.086 9.23913 11.1403 9.15951 11.2132 9.09924L13.8207 6.92441C14.1611 6.64174 13.988 6.07062 13.5438 6.04178L10.1402 5.82257C10.0474 5.81716 9.95807 5.78482 9.88329 5.7295C9.8085 5.67418 9.75145 5.59827 9.7191 5.51105L8.44997 2.31514C8.41637 2.22278 8.35517 2.143 8.27467 2.08662C8.19417 2.03024 8.09828 2 8 2C7.90172 2 7.80583 2.03024 7.72533 2.08662C7.64483 2.143 7.58363 2.22278 7.55003 2.31514L6.2809 5.51105C6.24855 5.59827 6.1915 5.67418 6.11671 5.7295C6.04193 5.78482 5.95264 5.81716 5.85978 5.82257L2.45618 6.04178C2.01199 6.07062 1.83892 6.64174 2.17928 6.92441L4.78678 9.09924C4.85966 9.15951 4.91403 9.23913 4.94363 9.32895C4.97323 9.41876 4.97685 9.51511 4.95407 9.6069L4.17529 12.6759C4.0426 13.1951 4.59641 13.6162 5.04061 13.3335L7.74617 11.6202C7.82204 11.572 7.91009 11.5463 8 11.5463C8.08991 11.5463 8.17796 11.572 8.25383 11.6202Z" fill="#FFDA55" stroke="#FFDA55" stroke-width="0.6" stroke-linecap="round" stroke-linejoin="round"/>
</svg>
