<svg width="16" height="16" viewBox="0 0 16 16" fill="none" xmlns="http://www.w3.org/2000/svg">
<path d="M13.3175 7.62557L7.96684 12.9762C7.31135 13.6317 6.4223 14 5.49529 14C4.56828 14 3.67924 13.6317 3.02375 12.9762C2.36825 12.3207 2 11.4317 2 10.5047C2 9.57766 2.36825 8.68862 3.02375 8.03312L8.3744 2.68247C8.8114 2.24547 9.40409 1.99997 10.0221 1.99997C10.6401 1.99997 11.2328 2.24547 11.6698 2.68247C12.1068 3.11947 12.3523 3.71216 12.3523 4.33017C12.3523 4.94817 12.1068 5.54087 11.6698 5.97787L6.31332 11.3285C6.09482 11.547 5.79847 11.6698 5.48947 11.6698C5.18047 11.6698 4.88412 11.547 4.66562 11.3285C4.44712 11.11 4.32437 10.8137 4.32437 10.5047C4.32437 10.1957 4.44712 9.89932 4.66562 9.68082L9.60872 4.74355" stroke="#090909" stroke-linecap="round" stroke-linejoin="round"/>
</svg>
