<svg width="32" height="32" viewBox="0 0 32 32" fill="none" xmlns="http://www.w3.org/2000/svg">
<path d="M10.6667 4.66669C10.6667 3.56212 11.5621 2.66669 12.6667 2.66669H19.3333C20.4379 2.66669 21.3333 3.56212 21.3333 4.66669V6.00002C21.3333 7.10459 20.4379 8.00002 19.3333 8.00002H12.6667C11.5621 8.00002 10.6667 7.10459 10.6667 6.00002V4.66669Z" fill="#090909"/>
<path fill-rule="evenodd" clip-rule="evenodd" d="M8.66667 5.38217C6.98946 5.47628 5.93064 5.74354 5.17157 6.50261C4 7.67418 4 9.5598 4 13.331V21.331C4 25.1023 4 26.9879 5.17157 28.1595C6.34315 29.331 8.22876 29.331 12 29.331H20C23.7712 29.331 25.6569 29.331 26.8284 28.1595C28 26.9879 28 25.1023 28 21.331V13.331C28 9.5598 28 7.67418 26.8284 6.50261C26.0694 5.74354 25.0105 5.47628 23.3333 5.38217V6.00002C23.3333 8.20916 21.5425 10 19.3333 10H12.6667C10.4575 10 8.66667 8.20916 8.66667 6.00002V5.38217ZM8.33333 14C8.33333 13.4477 8.78105 13 9.33333 13H22.6667C23.219 13 23.6667 13.4477 23.6667 14C23.6667 14.5523 23.219 15 22.6667 15H9.33333C8.78105 15 8.33333 14.5523 8.33333 14ZM9.66667 18.6667C9.66667 18.1144 10.1144 17.6667 10.6667 17.6667H21.3333C21.8856 17.6667 22.3333 18.1144 22.3333 18.6667C22.3333 19.219 21.8856 19.6667 21.3333 19.6667H10.6667C10.1144 19.6667 9.66667 19.219 9.66667 18.6667ZM11 23.3334C11 22.7811 11.4477 22.3334 12 22.3334H20C20.5523 22.3334 21 22.7811 21 23.3334C21 23.8856 20.5523 24.3334 20 24.3334H12C11.4477 24.3334 11 23.8856 11 23.3334Z" fill="#090909"/>
</svg>
