<svg width="16" height="16" viewBox="0 0 16 16" fill="none" xmlns="http://www.w3.org/2000/svg">
<path d="M8 6.5V9" stroke="#CB8B4A" stroke-width="1.5" stroke-linecap="round" stroke-linejoin="round"/>
<path d="M7.1375 2.50001L1.6375 12C1.54988 12.1518 1.50368 12.3239 1.50353 12.4991C1.50337 12.6744 1.54927 12.8466 1.63662 12.9985C1.72397 13.1504 1.84971 13.2767 2.00124 13.3647C2.15277 13.4527 2.32477 13.4994 2.5 13.5H13.5C13.6752 13.4994 13.8472 13.4527 13.9988 13.3647C14.1503 13.2767 14.276 13.1504 14.3634 12.9985C14.4507 12.8466 14.4966 12.6744 14.4965 12.4991C14.4963 12.3239 14.4501 12.1518 14.3625 12L8.8625 2.50001C8.77554 2.34805 8.64998 2.22176 8.49852 2.13393C8.34706 2.0461 8.17508 1.99985 8 1.99985C7.82492 1.99985 7.65295 2.0461 7.50149 2.13393C7.35003 2.22176 7.22447 2.34805 7.1375 2.50001V2.50001Z" stroke="#CB8B4A" stroke-linecap="round" stroke-linejoin="round"/>
<path d="M8 12C8.41421 12 8.75 11.6642 8.75 11.25C8.75 10.8358 8.41421 10.5 8 10.5C7.58579 10.5 7.25 10.8358 7.25 11.25C7.25 11.6642 7.58579 12 8 12Z" fill="#CB8B4A"/>
</svg>
