<svg width="28" height="28" viewBox="0 0 28 28" fill="none" xmlns="http://www.w3.org/2000/svg">
<path d="M9.33334 4.08331C9.33334 3.11681 10.1168 2.33331 11.0833 2.33331H16.9167C17.8832 2.33331 18.6667 3.11681 18.6667 4.08331V5.24998C18.6667 6.21648 17.8832 6.99998 16.9167 6.99998H11.0833C10.1168 6.99998 9.33334 6.21648 9.33334 5.24998V4.08331Z" stroke="#2C3036" stroke-width="2"/>
<path d="M4.52513 24.6415L5.23223 23.9344L5.23223 23.9344L4.52513 24.6415ZM23.4749 24.6415L22.7678 23.9344H22.7678L23.4749 24.6415ZM23.4749 5.6918L24.182 4.98469V4.98469L23.4749 5.6918ZM4.52513 5.6918L3.81802 4.98469L4.52513 5.6918ZM18.6722 3.66872C18.12 3.66564 17.6698 4.11086 17.6667 4.66313C17.6636 5.21541 18.1088 5.66561 18.6611 5.66869L18.6722 3.66872ZM9.3389 5.66869C9.89118 5.66561 10.3364 5.21541 10.3333 4.66313C10.3302 4.11086 9.88004 3.66564 9.32777 3.66872L9.3389 5.66869ZM9.33333 15.3333C8.78105 15.3333 8.33333 15.7811 8.33333 16.3333C8.33333 16.8856 8.78105 17.3333 9.33333 17.3333V15.3333ZM18.6667 17.3333C19.219 17.3333 19.6667 16.8856 19.6667 16.3333C19.6667 15.7811 19.219 15.3333 18.6667 15.3333V17.3333ZM8.16667 11.25C7.61438 11.25 7.16667 11.6977 7.16667 12.25C7.16667 12.8023 7.61438 13.25 8.16667 13.25V11.25ZM19.8333 13.25C20.3856 13.25 20.8333 12.8023 20.8333 12.25C20.8333 11.6977 20.3856 11.25 19.8333 11.25V13.25ZM10.5 19.4167C9.94772 19.4167 9.5 19.8644 9.5 20.4167C9.5 20.969 9.94772 21.4167 10.5 21.4167V19.4167ZM17.5 21.4167C18.0523 21.4167 18.5 20.969 18.5 20.4167C18.5 19.8644 18.0523 19.4167 17.5 19.4167V21.4167ZM23.5 11.6667V18.6667H25.5V11.6667H23.5ZM17.5 24.6667H10.5V26.6667H17.5V24.6667ZM4.5 18.6667V11.6667H2.5V18.6667H4.5ZM10.5 24.6667C8.82181 24.6667 7.66377 24.6645 6.7928 24.5474C5.95059 24.4342 5.52803 24.2302 5.23223 23.9344L3.81802 25.3487C4.54735 26.078 5.46231 26.3866 6.5263 26.5296C7.56152 26.6688 8.87835 26.6667 10.5 26.6667V24.6667ZM2.5 18.6667C2.5 20.2883 2.49788 21.6052 2.63706 22.6404C2.78011 23.7044 3.08869 24.6193 3.81802 25.3487L5.23223 23.9344C4.93644 23.6386 4.73246 23.2161 4.61922 22.3739C4.50212 21.5029 4.5 20.3449 4.5 18.6667H2.5ZM23.5 18.6667C23.5 20.3449 23.4979 21.5029 23.3808 22.3739C23.2675 23.2161 23.0636 23.6386 22.7678 23.9344L24.182 25.3487C24.9113 24.6193 25.2199 23.7044 25.3629 22.6404C25.5021 21.6052 25.5 20.2883 25.5 18.6667H23.5ZM17.5 26.6667C19.1216 26.6667 20.4385 26.6688 21.4737 26.5296C22.5377 26.3866 23.4527 26.078 24.182 25.3487L22.7678 23.9344C22.472 24.2302 22.0494 24.4342 21.2072 24.5474C20.3362 24.6645 19.1782 24.6667 17.5 24.6667V26.6667ZM25.5 11.6667C25.5 10.045 25.5021 8.72819 25.3629 7.69297C25.2199 6.62899 24.9113 5.71403 24.182 4.98469L22.7678 6.39891C23.0636 6.6947 23.2675 7.11726 23.3808 7.95947C23.4979 8.83045 23.5 9.98849 23.5 11.6667H25.5ZM4.5 11.6667C4.5 9.98849 4.50212 8.83045 4.61922 7.95947C4.73246 7.11726 4.93644 6.6947 5.23223 6.39891L3.81802 4.98469C3.08869 5.71403 2.78011 6.62899 2.63706 7.69297C2.49788 8.72819 2.5 10.045 2.5 11.6667H4.5ZM18.6611 5.66869C19.9378 5.67579 20.8316 5.70913 21.5055 5.83292C22.1509 5.95147 22.5072 6.13833 22.7678 6.39891L24.182 4.98469C23.5461 4.34882 22.7671 4.0312 21.8668 3.86583C20.9952 3.70572 19.933 3.67573 18.6722 3.66872L18.6611 5.66869ZM9.32777 3.66872C8.06698 3.67573 7.00484 3.70572 6.13316 3.86583C5.2329 4.0312 4.45389 4.34882 3.81802 4.98469L5.23223 6.39891C5.49281 6.13833 5.84914 5.95147 6.49449 5.83292C7.16842 5.70913 8.06216 5.67579 9.3389 5.66869L9.32777 3.66872ZM9.33333 17.3333H18.6667V15.3333H9.33333V17.3333ZM8.16667 13.25H19.8333V11.25H8.16667V13.25ZM10.5 21.4167H17.5V19.4167H10.5V21.4167Z" fill="#2C3036"/>
</svg>
