<svg width="29" height="25" viewBox="0 0 29 25" fill="none" xmlns="http://www.w3.org/2000/svg">
<g filter="url(#filter0_i_27443_1647)">
<path d="M8.694 10.9831C9.16885 9.75313 10.8258 9.5546 11.5778 10.6376L13.3317 13.1635C14.413 14.7207 13.2986 16.8512 11.4028 16.8512H9.85242C8.20315 16.8512 7.06768 15.1957 7.66167 13.6571L8.694 10.9831Z" fill="#F59C39"/>
</g>
<mask id="mask0_27443_1647" style="mask-type:alpha" maskUnits="userSpaceOnUse" x="7" y="9" width="7" height="8">
<path d="M8.694 10.9831C9.16885 9.75313 10.8258 9.5546 11.5778 10.6376L13.3317 13.1635C14.413 14.7207 13.2986 16.8512 11.4028 16.8512H9.85242C8.20315 16.8512 7.06768 15.1957 7.66167 13.6571L8.694 10.9831Z" fill="#F59C39"/>
</mask>
<g mask="url(#mask0_27443_1647)">
<g filter="url(#filter1_f_27443_1647)">
<path d="M10.1624 12.4833L10.726 7.83362L9.59881 7.31699L6.99216 12.1076L10.1624 12.4833Z" fill="#FFE2AF"/>
</g>
</g>
<g filter="url(#filter2_i_27443_1647)">
<path d="M21.2828 10.9917C20.8085 9.75974 19.1489 9.56119 18.3973 10.6464L16.6363 13.1894C15.5577 14.7469 16.6724 16.8747 18.5669 16.8747H20.1274C21.7758 16.8747 22.9112 15.2209 22.3189 13.6826L21.2828 10.9917Z" fill="#F59C39"/>
</g>
<mask id="mask1_27443_1647" style="mask-type:alpha" maskUnits="userSpaceOnUse" x="16" y="9" width="7" height="8">
<path d="M21.2828 10.9917C20.8085 9.75974 19.1489 9.56119 18.3973 10.6464L16.6363 13.1894C15.5577 14.7469 16.6724 16.8747 18.5669 16.8747H20.1274C21.7758 16.8747 22.9112 15.2209 22.3189 13.6826L21.2828 10.9917Z" fill="#F59C39"/>
</mask>
<g mask="url(#mask1_27443_1647)">
<g filter="url(#filter3_f_27443_1647)">
<path d="M20.1194 7.97452L17.5794 11.7202C16.6292 13.1215 18.1537 14.8741 19.6732 14.1272V13.4114C19.6732 12.0796 19.8671 10.755 20.2487 9.47907L20.2722 9.4007C20.4148 8.92407 20.3597 8.41012 20.1194 7.97452Z" fill="#FFEDC5"/>
</g>
</g>
<g filter="url(#filter4_i_27443_1647)">
<path d="M4.70326 13.054C4.36243 11.1056 6.81566 9.95777 8.09304 11.468C9.24281 12.8273 11.4249 12.4804 12.0965 10.8315L12.9956 8.62389C13.7105 6.86884 16.1956 6.86884 16.9104 8.62389L17.8096 10.8315C18.4811 12.4804 20.6633 12.8273 21.813 11.468C23.0904 9.95777 25.5436 11.1056 25.2028 13.054L23.6184 22.1115H6.28767L4.70326 13.054Z" fill="url(#paint0_linear_27443_1647)"/>
</g>
<ellipse cx="14.953" cy="22.135" rx="8.61839" ry="1.08023" fill="#6F6F6F"/>
<mask id="mask2_27443_1647" style="mask-type:alpha" maskUnits="userSpaceOnUse" x="4" y="7" width="22" height="16">
<path d="M4.75023 13.054C4.4094 11.1056 6.86263 9.95777 8.14 11.468C9.28978 12.8273 11.4719 12.4804 12.1435 10.8315L13.0426 8.62389C13.7574 6.86884 16.2426 6.86884 16.9574 8.62389L17.8565 10.8315C18.5281 12.4804 20.7102 12.8273 21.86 11.468C23.1374 9.95777 25.5906 11.1056 25.2498 13.054L23.6654 22.1115H6.33464L4.75023 13.054Z" fill="url(#paint1_linear_27443_1647)"/>
</mask>
<g mask="url(#mask2_27443_1647)">
<g filter="url(#filter5_f_27443_1647)">
<path d="M10.2564 21.0782L6.33465 22.1115L3.728 7.15259L9.7867 13.4226L10.2564 21.0782Z" fill="#FED99C"/>
</g>
<g filter="url(#filter6_f_27443_1647)">
<path d="M7.46185 21.8297L6.33465 22.1115L3.728 7.15259L4.33856 6.63596L7.46185 21.8297Z" fill="#FFA34F"/>
</g>
<g filter="url(#filter7_f_27443_1647)">
<path d="M6.85128 21.7827L5.72408 22.0645L3.728 7.15259V6.58899L6.85128 21.7827Z" fill="#F87C0B"/>
</g>
<g filter="url(#filter8_f_27443_1647)">
<path d="M10.5147 21.2442L9.61184 22.2759L9.01175 7.34045L10.4066 13.6007L10.5147 21.2442Z" fill="#FFF9D5"/>
</g>
<g filter="url(#filter9_f_27443_1647)">
<path d="M12.3464 21.1956L10.5616 22.2994L9.81018 7.34045L12.3464 10.3228V21.1956Z" fill="#FDFFF1"/>
</g>
<g filter="url(#filter10_f_27443_1647)">
<path d="M15.9628 20.1876L12.2524 20.9843V6.11934L14.953 2.26807L15.9628 20.1876Z" fill="#FFF9D5"/>
</g>
<g filter="url(#filter11_f_27443_1647)">
<path d="M20.2368 20.9843H15.3053V6.11934L18.0059 2.26807L20.8943 10.5107L20.2368 20.9843Z" fill="#FEBB6B"/>
</g>
<g filter="url(#filter12_f_27443_1647)">
<path d="M22.7965 20.9843H20.1898L20.7769 10.1115L21.9511 9.07822L25.1683 6.91776L22.7965 20.9843Z" fill="#FEA252"/>
</g>
<g filter="url(#filter13_f_27443_1647)">
<path d="M23.7828 20.9843H22.726L24.8395 9.14867L26.3894 6.91776L23.7828 20.9843Z" fill="#FFCE9E"/>
</g>
<path d="M9.45429 13.4557L5.41879 8.96083L5.79453 8.27982L11.1957 12.7886C11.1957 13.7043 10.066 14.137 9.45429 13.4557Z" fill="url(#paint2_linear_27443_1647)"/>
<path d="M20.6631 13.4557L24.6986 8.96083L24.3229 8.27982L18.9217 12.7886C18.9217 13.7043 20.0514 14.137 20.6631 13.4557Z" fill="url(#paint3_linear_27443_1647)"/>
<g filter="url(#filter14_f_27443_1647)">
<circle cx="15.0235" cy="6.21326" r="1.36204" fill="#EA7405"/>
</g>
<g opacity="0.7" filter="url(#filter15_f_27443_1647)">
<circle cx="4.9726" cy="8.84339" r="1.2681" fill="#EA7405"/>
</g>
<g opacity="0.7" filter="url(#filter16_f_27443_1647)">
<circle cx="25.2152" cy="8.84339" r="1.2681" fill="#EA7405"/>
</g>
</g>
<path d="M6.2715 22.3008L6.01566 20.8383C8.59092 20.2255 11.5588 19.8806 14.7182 19.8806C18.0634 19.8806 21.1939 20.2673 23.871 20.9492L23.6346 22.3008C21.1281 21.512 18.1491 21.0548 14.953 21.0548C11.7569 21.0548 8.77793 21.512 6.2715 22.3008Z" fill="#FF9535"/>
<mask id="mask3_27443_1647" style="mask-type:alpha" maskUnits="userSpaceOnUse" x="6" y="19" width="18" height="4">
<path d="M6.2715 22.3008L6.01566 20.8383C8.59092 20.2255 11.5588 19.8806 14.7182 19.8806C18.0634 19.8806 21.1939 20.2673 23.871 20.9492L23.6346 22.3008C21.1281 21.512 18.1491 21.0548 14.953 21.0548C11.7569 21.0548 8.77793 21.512 6.2715 22.3008Z" fill="#FD9434"/>
</mask>
<g mask="url(#mask3_27443_1647)">
<g filter="url(#filter17_f_27443_1647)">
<path d="M6.01566 21.0548V20.8383C8.59092 20.2255 11.5588 19.8806 14.7182 19.8806C18.0634 19.8806 21.1939 20.2673 23.871 20.9492V21.2661C21.3646 20.4773 17.9143 20.045 14.7182 20.045C11.5221 20.045 8.52209 20.266 6.01566 21.0548Z" fill="#FFE4BD"/>
</g>
</g>
<circle cx="14.9765" cy="4.99217" r="2.16047" fill="url(#paint4_radial_27443_1647)"/>
<circle cx="4.64384" cy="8.09199" r="1.64384" fill="url(#paint5_radial_27443_1647)"/>
<circle cx="25.3561" cy="8.09199" r="1.64384" fill="url(#paint6_radial_27443_1647)"/>
<g filter="url(#filter18_i_27443_1647)">
<ellipse cx="14.953" cy="22.135" rx="8.66536" ry="1.08023" fill="url(#paint7_linear_27443_1647)"/>
</g>
<mask id="mask4_27443_1647" style="mask-type:alpha" maskUnits="userSpaceOnUse" x="6" y="21" width="18" height="3">
<ellipse cx="14.953" cy="22.135" rx="8.66536" ry="1.08023" fill="url(#paint8_linear_27443_1647)"/>
</mask>
<g mask="url(#mask4_27443_1647)">
<g filter="url(#filter19_f_27443_1647)">
<ellipse cx="15" cy="20.6791" rx="8.24266" ry="1.64384" fill="#ED5E15"/>
</g>
</g>
<g filter="url(#filter20_f_27443_1647)">
<path d="M14.9061 4.3346C14.9061 4.61993 14.3695 4.85123 14.0841 4.85123C13.7988 4.85123 13.5675 4.61993 13.5675 4.3346C13.5675 4.04927 13.9867 3.4892 14.272 3.4892C14.5573 3.4892 14.9061 4.04927 14.9061 4.3346Z" fill="#FEF4A0"/>
</g>
<g filter="url(#filter21_f_27443_1647)">
<path d="M25.497 7.68218C25.497 7.90847 25.064 8.09192 24.8337 8.09192C24.6035 8.09192 24.4168 7.90847 24.4168 7.68218C24.4168 7.45588 24.7551 7.01169 24.9854 7.01169C25.2156 7.01169 25.497 7.45588 25.497 7.68218Z" fill="#FEF4A0"/>
</g>
<g filter="url(#filter22_f_27443_1647)">
<path d="M4.64383 7.68218C4.64383 7.90847 4.2108 8.09192 3.98053 8.09192C3.75027 8.09192 3.5636 7.90847 3.5636 7.68218C3.5636 7.45588 3.90188 7.01169 4.13214 7.01169C4.36241 7.01169 4.64383 7.45588 4.64383 7.68218Z" fill="#FEF4A0"/>
</g>
<g filter="url(#filter23_d_27443_1647)">
<path d="M14.9988 11.8828L12.3635 12.9744L11.2719 15.6097L12.3635 18.2449L14.9988 19.3365L17.634 18.2449L18.7256 15.6097L17.634 12.9744L14.9988 11.8828Z" fill="url(#paint9_linear_27443_1647)"/>
<path d="M15.0015 15.6184L17.6408 12.9791L16.0746 13.0226L15.0015 11.8915V15.6184Z" fill="url(#paint10_linear_27443_1647)"/>
<path d="M14.9985 15.6186L18.7309 15.6186L17.5927 14.5419L17.6338 12.9833L14.9985 15.6186Z" fill="url(#paint11_linear_27443_1647)"/>
<path d="M15.0015 15.6184L12.3623 12.9791L13.9284 13.0226L15.0015 11.8915V15.6184Z" fill="url(#paint12_linear_27443_1647)"/>
<path d="M15.0046 15.6186L11.2721 15.6186L12.4103 14.5419L12.3693 12.9833L15.0046 15.6186Z" fill="url(#paint13_linear_27443_1647)"/>
<path d="M14.9985 15.6184L12.3592 18.2576L13.9254 18.2141L14.9985 19.3452V15.6184Z" fill="url(#paint14_linear_27443_1647)"/>
<path d="M15.0015 15.6181L11.2691 15.6181L12.4073 16.6948L12.3662 18.2534L15.0015 15.6181Z" fill="url(#paint15_linear_27443_1647)"/>
<path d="M14.9985 15.6184L17.6377 18.2576L16.0716 18.2141L14.9985 19.3452V15.6184Z" fill="url(#paint16_linear_27443_1647)"/>
<path d="M14.9954 15.6181L18.7279 15.6181L17.5897 16.6948L17.6307 18.2534L14.9954 15.6181Z" fill="url(#paint17_linear_27443_1647)"/>
<path d="M14.9988 13.7245L13.6657 14.2766L13.1136 15.6097L13.6657 16.9427L14.9988 17.4948L16.3318 16.9427L16.8839 15.6097L16.3318 14.2766L14.9988 13.7245Z" fill="url(#paint18_linear_27443_1647)" style="mix-blend-mode:hard-light"/>
<g opacity="0.3">
<path d="M14.9988 13.7245L16.0719 13.0139L16.3329 14.2755L17.5945 14.5366L16.8839 15.6097L17.5945 16.6973L16.3329 16.9438L16.0719 18.2199L14.9988 17.4948L13.9257 18.2199L13.6646 16.9438L12.3885 16.6828L13.1136 15.6097L12.4175 14.5366L13.6646 14.2755L13.9257 13.0284L14.9988 13.7245Z" fill="url(#paint19_linear_27443_1647)" style="mix-blend-mode:hard-light"/>
</g>
<g opacity="0.6">
<path d="M16.0828 12.9953L14.9985 14.6025L13.9186 12.9923L14.2883 14.8955L12.3862 14.5204L13.9934 15.6048L12.3832 16.6846L14.2863 16.3149L13.9113 18.2171L14.9957 16.6099L16.0755 18.2201L15.7058 16.3169L17.608 16.6919L16.0008 15.6076L17.611 14.5277L15.7078 14.8974L16.0828 12.9953Z" fill="url(#paint20_linear_27443_1647)" style="mix-blend-mode:hard-light"/>
</g>
<g opacity="0.4">
<path d="M16.8839 15.6097L14.9988 13.7245L13.1136 15.6097L14.9988 17.4948L16.8839 15.6097Z" fill="url(#paint21_linear_27443_1647)" style="mix-blend-mode:soft-light"/>
</g>
<path d="M15.6658 14.6816L15.5736 14.72L15.4813 14.758L15.4432 14.8504L15.4048 14.9426L15.4432 15.0348L15.4813 15.1272L15.5736 15.1652L15.6658 15.2036L15.758 15.1652L15.8504 15.1272L15.8884 15.0348L15.9268 14.9426L15.8884 14.8504L15.8504 14.758L15.758 14.72L15.6658 14.6816Z" fill="white" fill-opacity="0.59" style="mix-blend-mode:hard-light"/>
<g opacity="0.1">
<path d="M16.2517 13.3619L15.9239 13.5008L15.5954 13.638L15.4603 13.9716L15.3236 14.3045L15.4603 14.6375L15.5954 14.971L15.9239 15.1083L16.2517 15.2471L16.5795 15.1083L16.9079 14.971L17.0431 14.6375L17.1798 14.3045L17.0431 13.9716L16.9079 13.638L16.5795 13.5008L16.2517 13.3619Z" fill="white" fill-opacity="0.59" style="mix-blend-mode:hard-light"/>
</g>
<path d="M15.4628 15.0006L15.4116 15.022L15.3603 15.0431L15.3391 15.0944L15.3178 15.1456L15.3391 15.1968L15.3603 15.2482L15.4116 15.2693L15.4628 15.2906L15.514 15.2693L15.5653 15.2482L15.5865 15.1968L15.6078 15.1456L15.5865 15.0944L15.5653 15.0431L15.514 15.022L15.4628 15.0006Z" fill="white" fill-opacity="0.87" style="mix-blend-mode:hard-light"/>
</g>
<defs>
<filter id="filter0_i_27443_1647" x="7.50186" y="9.93103" width="6.72299" height="7.38989" filterUnits="userSpaceOnUse" color-interpolation-filters="sRGB">
<feFlood flood-opacity="0" result="BackgroundImageFix"/>
<feBlend mode="normal" in="SourceGraphic" in2="BackgroundImageFix" result="shape"/>
<feColorMatrix in="SourceAlpha" type="matrix" values="0 0 0 0 0 0 0 0 0 0 0 0 0 0 0 0 0 0 127 0" result="hardAlpha"/>
<feOffset dx="0.469667" dy="0.469667"/>
<feGaussianBlur stdDeviation="0.704501"/>
<feComposite in2="hardAlpha" operator="arithmetic" k2="-1" k3="1"/>
<feColorMatrix type="matrix" values="0 0 0 0 1 0 0 0 0 0.9725 0 0 0 0 0.875 0 0 0 1 0"/>
<feBlend mode="normal" in2="shape" result="effect1_innerShadow_27443_1647"/>
</filter>
<filter id="filter1_f_27443_1647" x="2.88257" y="3.2074" width="11.953" height="13.3855" filterUnits="userSpaceOnUse" color-interpolation-filters="sRGB">
<feFlood flood-opacity="0" result="BackgroundImageFix"/>
<feBlend mode="normal" in="SourceGraphic" in2="BackgroundImageFix" result="shape"/>
<feGaussianBlur stdDeviation="2.05479" result="effect1_foregroundBlur_27443_1647"/>
</filter>
<filter id="filter2_i_27443_1647" x="16.2145" y="9.9382" width="6.7331" height="7.40619" filterUnits="userSpaceOnUse" color-interpolation-filters="sRGB">
<feFlood flood-opacity="0" result="BackgroundImageFix"/>
<feBlend mode="normal" in="SourceGraphic" in2="BackgroundImageFix" result="shape"/>
<feColorMatrix in="SourceAlpha" type="matrix" values="0 0 0 0 0 0 0 0 0 0 0 0 0 0 0 0 0 0 127 0" result="hardAlpha"/>
<feOffset dx="0.469667" dy="0.469667"/>
<feGaussianBlur stdDeviation="0.704501"/>
<feComposite in2="hardAlpha" operator="arithmetic" k2="-1" k3="1"/>
<feColorMatrix type="matrix" values="0 0 0 0 1 0 0 0 0 0.9725 0 0 0 0 0.875 0 0 0 1 0"/>
<feBlend mode="normal" in2="shape" result="effect1_innerShadow_27443_1647"/>
</filter>
<filter id="filter3_f_27443_1647" x="12.0013" y="2.69076" width="13.6324" height="16.8986" filterUnits="userSpaceOnUse" color-interpolation-filters="sRGB">
<feFlood flood-opacity="0" result="BackgroundImageFix"/>
<feBlend mode="normal" in="SourceGraphic" in2="BackgroundImageFix" result="shape"/>
<feGaussianBlur stdDeviation="2.64188" result="effect1_foregroundBlur_27443_1647"/>
</filter>
<filter id="filter4_i_27443_1647" x="4.67111" y="7.07278" width="21.2683" height="15.0387" filterUnits="userSpaceOnUse" color-interpolation-filters="sRGB">
<feFlood flood-opacity="0" result="BackgroundImageFix"/>
<feBlend mode="normal" in="SourceGraphic" in2="BackgroundImageFix" result="shape"/>
<feColorMatrix in="SourceAlpha" type="matrix" values="0 0 0 0 0 0 0 0 0 0 0 0 0 0 0 0 0 0 127 0" result="hardAlpha"/>
<feOffset dx="0.704501" dy="-0.234834"/>
<feGaussianBlur stdDeviation="0.763209"/>
<feComposite in2="hardAlpha" operator="arithmetic" k2="-1" k3="1"/>
<feColorMatrix type="matrix" values="0 0 0 0 1 0 0 0 0 0.9725 0 0 0 0 0.875 0 0 0 1 0"/>
<feBlend mode="normal" in2="shape" result="effect1_innerShadow_27443_1647"/>
</filter>
<filter id="filter5_f_27443_1647" x="-4.02151" y="-0.596923" width="22.0274" height="30.4579" filterUnits="userSpaceOnUse" color-interpolation-filters="sRGB">
<feFlood flood-opacity="0" result="BackgroundImageFix"/>
<feBlend mode="normal" in="SourceGraphic" in2="BackgroundImageFix" result="shape"/>
<feGaussianBlur stdDeviation="3.87476" result="effect1_foregroundBlur_27443_1647"/>
</filter>
<filter id="filter6_f_27443_1647" x="-0.264175" y="2.64378" width="11.7182" height="23.4599" filterUnits="userSpaceOnUse" color-interpolation-filters="sRGB">
<feFlood flood-opacity="0" result="BackgroundImageFix"/>
<feBlend mode="normal" in="SourceGraphic" in2="BackgroundImageFix" result="shape"/>
<feGaussianBlur stdDeviation="1.99609" result="effect1_foregroundBlur_27443_1647"/>
</filter>
<filter id="filter7_f_27443_1647" x="-0.616426" y="2.24457" width="11.8121" height="24.1644" filterUnits="userSpaceOnUse" color-interpolation-filters="sRGB">
<feFlood flood-opacity="0" result="BackgroundImageFix"/>
<feBlend mode="normal" in="SourceGraphic" in2="BackgroundImageFix" result="shape"/>
<feGaussianBlur stdDeviation="2.17221" result="effect1_foregroundBlur_27443_1647"/>
</filter>
<filter id="filter8_f_27443_1647" x="5.25441" y="3.58312" width="9.01761" height="22.4501" filterUnits="userSpaceOnUse" color-interpolation-filters="sRGB">
<feFlood flood-opacity="0" result="BackgroundImageFix"/>
<feBlend mode="normal" in="SourceGraphic" in2="BackgroundImageFix" result="shape"/>
<feGaussianBlur stdDeviation="1.87867" result="effect1_foregroundBlur_27443_1647"/>
</filter>
<filter id="filter9_f_27443_1647" x="4.40901" y="1.93928" width="13.3385" height="25.7612" filterUnits="userSpaceOnUse" color-interpolation-filters="sRGB">
<feFlood flood-opacity="0" result="BackgroundImageFix"/>
<feBlend mode="normal" in="SourceGraphic" in2="BackgroundImageFix" result="shape"/>
<feGaussianBlur stdDeviation="2.70059" result="effect1_foregroundBlur_27443_1647"/>
</filter>
<filter id="filter10_f_27443_1647" x="0.158508" y="-9.82587" width="27.8982" height="42.9041" filterUnits="userSpaceOnUse" color-interpolation-filters="sRGB">
<feFlood flood-opacity="0" result="BackgroundImageFix"/>
<feBlend mode="normal" in="SourceGraphic" in2="BackgroundImageFix" result="shape"/>
<feGaussianBlur stdDeviation="6.04697" result="effect1_foregroundBlur_27443_1647"/>
</filter>
<filter id="filter11_f_27443_1647" x="8.61251" y="-4.42469" width="18.9746" height="32.1018" filterUnits="userSpaceOnUse" color-interpolation-filters="sRGB">
<feFlood flood-opacity="0" result="BackgroundImageFix"/>
<feBlend mode="normal" in="SourceGraphic" in2="BackgroundImageFix" result="shape"/>
<feGaussianBlur stdDeviation="3.34638" result="effect1_foregroundBlur_27443_1647"/>
</filter>
<filter id="filter12_f_27443_1647" x="13.4971" y="0.224996" width="18.364" height="27.452" filterUnits="userSpaceOnUse" color-interpolation-filters="sRGB">
<feFlood flood-opacity="0" result="BackgroundImageFix"/>
<feBlend mode="normal" in="SourceGraphic" in2="BackgroundImageFix" result="shape"/>
<feGaussianBlur stdDeviation="3.34638" result="effect1_foregroundBlur_27443_1647"/>
</filter>
<filter id="filter13_f_27443_1647" x="16.0333" y="0.224996" width="17.0489" height="27.452" filterUnits="userSpaceOnUse" color-interpolation-filters="sRGB">
<feFlood flood-opacity="0" result="BackgroundImageFix"/>
<feBlend mode="normal" in="SourceGraphic" in2="BackgroundImageFix" result="shape"/>
<feGaussianBlur stdDeviation="3.34638" result="effect1_foregroundBlur_27443_1647"/>
</filter>
<filter id="filter14_f_27443_1647" x="11.1957" y="2.38547" width="7.65557" height="7.65557" filterUnits="userSpaceOnUse" color-interpolation-filters="sRGB">
<feFlood flood-opacity="0" result="BackgroundImageFix"/>
<feBlend mode="normal" in="SourceGraphic" in2="BackgroundImageFix" result="shape"/>
<feGaussianBlur stdDeviation="1.23288" result="effect1_foregroundBlur_27443_1647"/>
</filter>
<filter id="filter15_f_27443_1647" x="2.64775" y="6.51854" width="4.6497" height="4.6497" filterUnits="userSpaceOnUse" color-interpolation-filters="sRGB">
<feFlood flood-opacity="0" result="BackgroundImageFix"/>
<feBlend mode="normal" in="SourceGraphic" in2="BackgroundImageFix" result="shape"/>
<feGaussianBlur stdDeviation="0.528376" result="effect1_foregroundBlur_27443_1647"/>
</filter>
<filter id="filter16_f_27443_1647" x="22.8904" y="6.51854" width="4.6497" height="4.6497" filterUnits="userSpaceOnUse" color-interpolation-filters="sRGB">
<feFlood flood-opacity="0" result="BackgroundImageFix"/>
<feBlend mode="normal" in="SourceGraphic" in2="BackgroundImageFix" result="shape"/>
<feGaussianBlur stdDeviation="0.528376" result="effect1_foregroundBlur_27443_1647"/>
</filter>
<filter id="filter17_f_27443_1647" x="5.42857" y="19.2935" width="19.0295" height="2.5597" filterUnits="userSpaceOnUse" color-interpolation-filters="sRGB">
<feFlood flood-opacity="0" result="BackgroundImageFix"/>
<feBlend mode="normal" in="SourceGraphic" in2="BackgroundImageFix" result="shape"/>
<feGaussianBlur stdDeviation="0.293542" result="effect1_foregroundBlur_27443_1647"/>
</filter>
<filter id="filter18_i_27443_1647" x="6.28766" y="21.0548" width="17.3307" height="2.3953" filterUnits="userSpaceOnUse" color-interpolation-filters="sRGB">
<feFlood flood-opacity="0" result="BackgroundImageFix"/>
<feBlend mode="normal" in="SourceGraphic" in2="BackgroundImageFix" result="shape"/>
<feColorMatrix in="SourceAlpha" type="matrix" values="0 0 0 0 0 0 0 0 0 0 0 0 0 0 0 0 0 0 127 0" result="hardAlpha"/>
<feOffset dy="0.234834"/>
<feGaussianBlur stdDeviation="1.29159"/>
<feComposite in2="hardAlpha" operator="arithmetic" k2="-1" k3="1"/>
<feColorMatrix type="matrix" values="0 0 0 0 0.866667 0 0 0 0 0.508011 0 0 0 0 0.176944 0 0 0 1 0"/>
<feBlend mode="normal" in2="shape" result="effect1_innerShadow_27443_1647"/>
</filter>
<filter id="filter19_f_27443_1647" x="3.70449" y="15.9824" width="22.591" height="9.39333" filterUnits="userSpaceOnUse" color-interpolation-filters="sRGB">
<feFlood flood-opacity="0" result="BackgroundImageFix"/>
<feBlend mode="normal" in="SourceGraphic" in2="BackgroundImageFix" result="shape"/>
<feGaussianBlur stdDeviation="1.52642" result="effect1_foregroundBlur_27443_1647"/>
</filter>
<filter id="filter20_f_27443_1647" x="10.6321" y="0.553776" width="7.2094" height="7.23287" filterUnits="userSpaceOnUse" color-interpolation-filters="sRGB">
<feFlood flood-opacity="0" result="BackgroundImageFix"/>
<feBlend mode="normal" in="SourceGraphic" in2="BackgroundImageFix" result="shape"/>
<feGaussianBlur stdDeviation="1.46771" result="effect1_foregroundBlur_27443_1647"/>
</filter>
<filter id="filter21_f_27443_1647" x="21.4814" y="4.07627" width="6.95107" height="6.95107" filterUnits="userSpaceOnUse" color-interpolation-filters="sRGB">
<feFlood flood-opacity="0" result="BackgroundImageFix"/>
<feBlend mode="normal" in="SourceGraphic" in2="BackgroundImageFix" result="shape"/>
<feGaussianBlur stdDeviation="1.46771" result="effect1_foregroundBlur_27443_1647"/>
</filter>
<filter id="filter22_f_27443_1647" x="0.628178" y="4.07627" width="6.95107" height="6.95107" filterUnits="userSpaceOnUse" color-interpolation-filters="sRGB">
<feFlood flood-opacity="0" result="BackgroundImageFix"/>
<feBlend mode="normal" in="SourceGraphic" in2="BackgroundImageFix" result="shape"/>
<feGaussianBlur stdDeviation="1.46771" result="effect1_foregroundBlur_27443_1647"/>
</filter>
<filter id="filter23_d_27443_1647" x="7.51904" y="9.07031" width="14.9619" height="14.9624" filterUnits="userSpaceOnUse" color-interpolation-filters="sRGB">
<feFlood flood-opacity="0" result="BackgroundImageFix"/>
<feColorMatrix in="SourceAlpha" type="matrix" values="0 0 0 0 0 0 0 0 0 0 0 0 0 0 0 0 0 0 127 0" result="hardAlpha"/>
<feOffset dy="0.9375"/>
<feGaussianBlur stdDeviation="1.875"/>
<feComposite in2="hardAlpha" operator="out"/>
<feColorMatrix type="matrix" values="0 0 0 0 0.921569 0 0 0 0 0.470588 0 0 0 0 0.0313726 0 0 0 0.8 0"/>
<feBlend mode="normal" in2="BackgroundImageFix" result="effect1_dropShadow_27443_1647"/>
<feBlend mode="normal" in="SourceGraphic" in2="effect1_dropShadow_27443_1647" result="shape"/>
</filter>
<linearGradient id="paint0_linear_27443_1647" x1="4.409" y1="8.67902" x2="23.7358" y2="22.135" gradientUnits="userSpaceOnUse">
<stop stop-color="#FFDDA4"/>
<stop offset="1" stop-color="#FEAD57"/>
</linearGradient>
<linearGradient id="paint1_linear_27443_1647" x1="4.45597" y1="8.67902" x2="23.7828" y2="22.135" gradientUnits="userSpaceOnUse">
<stop stop-color="#FFDDA4"/>
<stop offset="1" stop-color="#FEAD57"/>
</linearGradient>
<linearGradient id="paint2_linear_27443_1647" x1="5.39531" y1="8.27982" x2="9.90411" y2="13.728" gradientUnits="userSpaceOnUse">
<stop stop-color="#EB7708"/>
<stop offset="1" stop-color="#FACD6C"/>
</linearGradient>
<linearGradient id="paint3_linear_27443_1647" x1="24.7221" y1="8.27982" x2="20.2133" y2="13.728" gradientUnits="userSpaceOnUse">
<stop offset="0.226676" stop-color="#FACD6C"/>
<stop offset="1" stop-color="#EB7708"/>
</linearGradient>
<radialGradient id="paint4_radial_27443_1647" cx="0" cy="0" r="1" gradientUnits="userSpaceOnUse" gradientTransform="translate(13.2387 3.93541) rotate(34.7778) scale(4.11703)">
<stop stop-color="#FFC85C"/>
<stop offset="1" stop-color="#E97000"/>
</radialGradient>
<radialGradient id="paint5_radial_27443_1647" cx="0" cy="0" r="1" gradientUnits="userSpaceOnUse" gradientTransform="translate(3.32162 7.28794) rotate(34.7778) scale(3.13252)">
<stop stop-color="#FFC85C"/>
<stop offset="1" stop-color="#E97000"/>
</radialGradient>
<radialGradient id="paint6_radial_27443_1647" cx="0" cy="0" r="1" gradientUnits="userSpaceOnUse" gradientTransform="translate(24.0339 7.28794) rotate(34.7778) scale(3.13252)">
<stop stop-color="#FFC85C"/>
<stop offset="1" stop-color="#E97000"/>
</radialGradient>
<linearGradient id="paint7_linear_27443_1647" x1="6.94878" y1="22.135" x2="22.4378" y2="22.135" gradientUnits="userSpaceOnUse">
<stop stop-color="#F9A13D"/>
<stop offset="1" stop-color="#F19734"/>
</linearGradient>
<linearGradient id="paint8_linear_27443_1647" x1="6.94878" y1="22.135" x2="22.4378" y2="22.135" gradientUnits="userSpaceOnUse">
<stop stop-color="#F9A13D"/>
<stop offset="1" stop-color="#F19734"/>
</linearGradient>
<linearGradient id="paint9_linear_27443_1647" x1="17.5365" y1="13.0574" x2="12.9686" y2="18.9015" gradientUnits="userSpaceOnUse">
<stop stop-color="#466CC6"/>
<stop offset="1" stop-color="#75D2F4"/>
</linearGradient>
<linearGradient id="paint10_linear_27443_1647" x1="16.3212" y1="11.8915" x2="15.1492" y2="15.7657" gradientUnits="userSpaceOnUse">
<stop offset="0.153262" stop-color="#3D46F7"/>
<stop offset="1" stop-color="#35E3FB"/>
</linearGradient>
<linearGradient id="paint11_linear_27443_1647" x1="18.5669" y1="13.9164" x2="14.9988" y2="15.8272" gradientUnits="userSpaceOnUse">
<stop offset="0.153262" stop-color="#2E35AC"/>
<stop offset="1" stop-color="#35D8FB"/>
</linearGradient>
<linearGradient id="paint12_linear_27443_1647" x1="14.7523" y1="12.9124" x2="13.2586" y2="14.3916" gradientUnits="userSpaceOnUse">
<stop offset="0.153262" stop-color="#2251BD"/>
<stop offset="1" stop-color="#26A7F4"/>
</linearGradient>
<linearGradient id="paint13_linear_27443_1647" x1="12.9976" y1="14.029" x2="12.8671" y2="15.8707" gradientUnits="userSpaceOnUse">
<stop offset="0.153262" stop-color="#2E35AC"/>
<stop offset="1" stop-color="#359CFB"/>
</linearGradient>
<linearGradient id="paint14_linear_27443_1647" x1="12.968" y1="17.5964" x2="15.1873" y2="17.4948" gradientUnits="userSpaceOnUse">
<stop offset="0.153262" stop-color="#5DB9ED"/>
<stop offset="1" stop-color="#1A43AF"/>
</linearGradient>
<linearGradient id="paint15_linear_27443_1647" x1="12.1671" y1="15.581" x2="13.8081" y2="17.0785" gradientUnits="userSpaceOnUse">
<stop offset="0.153262" stop-color="#5DB9ED"/>
<stop offset="1" stop-color="#579BEB"/>
</linearGradient>
<linearGradient id="paint16_linear_27443_1647" x1="17.029" y1="17.5964" x2="14.5637" y2="17.1903" gradientUnits="userSpaceOnUse">
<stop offset="0.153262" stop-color="#2E35AC"/>
<stop offset="1" stop-color="#359CFB"/>
</linearGradient>
<linearGradient id="paint17_linear_27443_1647" x1="18.9286" y1="15.7257" x2="14.9957" y2="15.4095" gradientUnits="userSpaceOnUse">
<stop offset="0.153262" stop-color="#2E35AC"/>
<stop offset="1" stop-color="#359CFB"/>
</linearGradient>
<linearGradient id="paint18_linear_27443_1647" x1="16.2824" y1="14.3186" x2="13.9718" y2="17.2748" gradientUnits="userSpaceOnUse">
<stop stop-color="#2F41B2"/>
<stop offset="1" stop-color="#89DFFF"/>
</linearGradient>
<linearGradient id="paint19_linear_27443_1647" x1="16.3937" y1="15.4569" x2="12.0251" y2="15.739" gradientUnits="userSpaceOnUse">
<stop offset="0.153262" stop-color="#5DB9ED"/>
<stop offset="1" stop-color="#579BEB"/>
</linearGradient>
<linearGradient id="paint20_linear_27443_1647" x1="17.5185" y1="14.5575" x2="12.6158" y2="17.3209" gradientUnits="userSpaceOnUse">
<stop stop-color="#2A58C6"/>
<stop offset="1" stop-color="#4FF4FF"/>
</linearGradient>
<linearGradient id="paint21_linear_27443_1647" x1="14.0127" y1="16.9438" x2="16.0864" y2="13.971" gradientUnits="userSpaceOnUse">
<stop stop-color="#60F5FF"/>
<stop offset="1" stop-color="white" stop-opacity="0"/>
</linearGradient>
</defs>
</svg>
