<svg width="28" height="26" viewBox="0 0 28 26" fill="none" xmlns="http://www.w3.org/2000/svg">
<path d="M9 4.67366C9.90927 4.2417 10.9264 4 12.0001 4C15.8661 4 19.0001 7.13401 19.0001 11V11.7041C19.0001 12.5491 19.2502 13.3752 19.7189 14.0783L20.8675 15.8012C21.9166 17.3749 21.1157 19.5139 19.291 20.0116C14.5175 21.3134 9.48258 21.3134 4.70913 20.0116C2.88442 19.5139 2.08349 17.3749 3.13263 15.8012L4.28123 14.0783C4.74995 13.3752 5.00006 12.5491 5.00006 11.7041V11C5.00006 9.92638 5.24177 8.90921 5.67373 7.99994" stroke="#090909" stroke-width="1.5" stroke-linecap="round"/>
<path d="M7.5 21C8.15503 22.7478 9.92246 24 12 24C12.2445 24 12.4847 23.9827 12.7192 23.9492M16.5 21C16.2329 21.7126 15.781 22.3428 15.1985 22.8393" stroke="#090909" stroke-width="1.5" stroke-linecap="round"/>
<rect x="13" y="0.5" width="15" height="15" rx="7.5" fill="#EA1917"/>
<path d="M20.4707 12.0977C18.8594 12.0977 17.7168 11.209 17.6973 9.93945H19.377C19.3867 10.4082 19.8555 10.7402 20.4805 10.7402C21.1055 10.7402 21.5547 10.3789 21.5449 9.87109C21.5547 9.36328 21.0762 8.99219 20.334 8.99219H19.6504V7.80078H20.334C20.9785 7.80078 21.4277 7.45898 21.4277 6.95117C21.4277 6.47266 21.0469 6.13086 20.4805 6.13086C19.9043 6.13086 19.4453 6.46289 19.4355 6.96094H17.834C17.8535 5.71094 18.9668 4.83203 20.4902 4.83203C22.0039 4.83203 23.0391 5.70117 23.0293 6.85352C23.0391 7.64453 22.4531 8.20117 21.6426 8.31836V8.36719C22.7266 8.49414 23.3027 9.11914 23.293 9.99805C23.3027 11.2188 22.1211 12.0977 20.4707 12.0977Z" fill="white"/>
</svg>
