<svg width="32" height="32" viewBox="0 0 32 32" fill="none" xmlns="http://www.w3.org/2000/svg">
<path fill-rule="evenodd" clip-rule="evenodd" d="M14.065 28.7037L14.3984 28.1404C14.9327 27.2376 15.1999 26.7862 15.6255 26.5345C16.0511 26.2828 16.6062 26.265 17.7165 26.2295C18.7576 26.1962 19.4573 26.1053 20.0556 25.8575C21.3151 25.3358 22.3159 24.3351 22.8376 23.0755C23.2289 22.1308 23.2289 20.9332 23.2289 18.538V17.5098C23.2289 14.1444 23.2289 12.4616 22.4714 11.2255C22.0475 10.5338 21.466 9.95224 20.7743 9.52837C19.5381 8.77085 17.8554 8.77085 14.49 8.77085H11.4056C8.04016 8.77085 6.35743 8.77085 5.12128 9.52837C4.42959 9.95224 3.84804 10.5338 3.42417 11.2255C2.66666 12.4616 2.66666 14.1444 2.66666 17.5098V18.538C2.66666 20.9332 2.66666 22.1308 3.05796 23.0755C3.57969 24.3351 4.58043 25.3358 5.84001 25.8575C6.43827 26.1053 7.13796 26.1962 8.17902 26.2295C9.2893 26.265 9.84444 26.2828 10.27 26.5345C10.6956 26.7862 10.9628 27.2376 11.4971 28.1404L11.8305 28.7037C12.3273 29.5429 13.5682 29.5429 14.065 28.7037ZM17.4458 19.052C18.1555 19.052 18.7309 18.4766 18.7309 17.7668C18.7309 17.0571 18.1555 16.4817 17.4458 16.4817C16.736 16.4817 16.1606 17.0571 16.1606 17.7668C16.1606 18.4766 16.736 19.052 17.4458 19.052ZM14.2329 17.7668C14.2329 18.4766 13.6575 19.052 12.9478 19.052C12.238 19.052 11.6626 18.4766 11.6626 17.7668C11.6626 17.0571 12.238 16.4817 12.9478 16.4817C13.6575 16.4817 14.2329 17.0571 14.2329 17.7668ZM8.44979 19.052C9.15955 19.052 9.73493 18.4766 9.73493 17.7668C9.73493 17.0571 9.15955 16.4817 8.44979 16.4817C7.74003 16.4817 7.16465 17.0571 7.16465 17.7668C7.16465 18.4766 7.74003 19.052 8.44979 19.052Z" fill="#090909"/>
<path d="M20.2262 2.66669C21.7618 2.66668 22.9829 2.66667 23.9623 2.75979C24.9665 2.85527 25.8155 3.0554 26.5719 3.51889C27.35 3.99575 28.0043 4.65 28.4811 5.42815C28.9446 6.1845 29.1447 7.03354 29.2402 8.03774C29.3333 9.01707 29.3333 10.2383 29.3333 11.7739V12.8227C29.3333 13.9156 29.3333 14.7848 29.2852 15.4897C29.236 16.2109 29.1333 16.8301 28.8931 17.41C28.3062 18.827 27.1803 19.9528 25.7633 20.5398C25.7279 20.5545 25.6923 20.5686 25.6565 20.5823C25.4854 20.6477 25.3389 20.7037 25.2102 20.7455C25.2289 20.1204 25.2289 19.4084 25.2289 18.6049V17.4152C25.2289 15.8131 25.229 14.471 25.1252 13.3799C25.0166 12.2376 24.7804 11.1656 24.1767 10.1805C23.5879 9.21969 22.7801 8.41188 21.8193 7.82309C20.8342 7.2194 19.7622 6.98313 18.6199 6.87452C17.5288 6.77078 16.1867 6.77081 14.5846 6.77085H11.311C10.2229 6.77083 9.25472 6.7708 8.40367 6.80329C8.44332 6.66589 8.49764 6.5084 8.5614 6.32353C8.66985 6.00912 8.80691 5.71176 8.98071 5.42815C9.45756 4.65 10.1118 3.99575 10.89 3.51889C11.6463 3.0554 12.4953 2.85527 13.4995 2.75979C14.4789 2.66667 15.7001 2.66668 17.2357 2.66669H20.2262Z" fill="#090909"/>
</svg>
