<svg width="16" height="16" viewBox="0 0 16 16" fill="none" xmlns="http://www.w3.org/2000/svg">
<rect x="1" y="0.999939" width="14" height="14" rx="2" fill="#B30B00"/>
<path fill-rule="evenodd" clip-rule="evenodd" d="M8.03349 4.10888C8.20088 4.18492 8.1635 4.30002 8.10824 4.84101C8.05138 5.40152 7.86253 6.42242 7.49794 7.42462C7.13296 8.42807 6.59144 9.41282 6.1195 10.1429C5.64836 10.8721 5.24441 11.3462 4.93707 11.6196C4.62815 11.893 4.41464 11.9657 4.27509 11.9906C4.13673 12.0155 4.07391 11.9906 4.03654 11.9179C3.99916 11.8452 3.98604 11.7226 4.01825 11.5776C4.04966 11.4309 4.1248 11.2606 4.33791 11.0428C4.553 10.8239 4.90487 10.5567 5.39589 10.3066C5.88691 10.0577 6.5155 9.82625 7.03197 9.66877C7.54843 9.51046 7.95079 9.4257 8.30306 9.35922C8.65612 9.29232 8.95789 9.24371 9.25329 9.21961C9.5495 9.19468 9.83934 9.19468 10.1224 9.21961C10.4055 9.24371 10.6826 9.29232 10.922 9.35216C11.1609 9.41323 11.3625 9.48636 11.5386 9.60229C11.7144 9.71739 11.8658 9.87569 11.941 10.0519C12.0173 10.2285 12.0173 10.4229 11.9541 10.5625C11.8913 10.7021 11.7649 10.7877 11.6205 10.8355C11.4762 10.8841 11.3124 10.8962 11.1172 10.8355C10.922 10.7748 10.6946 10.6415 10.456 10.4645C10.2174 10.2887 9.96537 10.0706 9.63816 9.72985C9.31094 9.38914 8.90779 8.92626 8.56825 8.4771C8.22871 8.02711 7.95079 7.58958 7.76194 7.21895C7.57388 6.8479 7.47289 6.54417 7.39099 6.2396C7.30909 5.93586 7.24627 5.63213 7.22122 5.35873C7.19617 5.08449 7.2081 4.84142 7.23354 4.64821C7.25859 4.45292 7.29716 4.3075 7.35958 4.21027C7.4224 4.11262 7.51106 4.06401 7.57388 4.03991C7.6367 4.01498 7.67487 4.01498 7.71224 4.00958C7.74961 4.00376 7.78699 3.9913 7.84464 4.00958C7.89951 4.0262 7.97266 4.07274 8.03349 4.10888V4.10888Z" stroke="white" stroke-width="0.8"/>
</svg>
