<svg width="32" height="32" viewBox="0 0 32 32" fill="none" xmlns="http://www.w3.org/2000/svg">
<g clip-path="url(#clip0_23937_25273)">
<rect width="32" height="32" rx="16" fill="#D6DFE7"/>
<path fill-rule="evenodd" clip-rule="evenodd" d="M16 20.0741C18.7819 20.0741 21.037 17.8189 21.037 15.037C21.037 12.2552 18.7819 10 16 10C13.2181 10 10.963 12.2552 10.963 15.037C10.963 17.8189 13.2181 20.0741 16 20.0741ZM26.0741 28.8889C26.0741 32.0002 20.4774 32.6667 16 32.6667C11.5226 32.6667 5.92593 32.0002 5.92593 28.8889C5.92593 25.7776 10.4362 21.3333 16 21.3333C21.5638 21.3333 26.0741 25.7776 26.0741 28.8889Z" fill="#F9FAFB"/>
</g>
<defs>
<clipPath id="clip0_23937_25273">
<rect width="32" height="32" rx="16" fill="white"/>
</clipPath>
</defs>
</svg>
