<svg width="16" height="16" viewBox="0 0 16 16" fill="none" xmlns="http://www.w3.org/2000/svg">
<path d="M13.9834 8.12347L13.4908 8.03827L13.9834 8.12347ZM13.5131 10.8433L13.0204 10.7581L13.5131 10.8433ZM4.62518 13.6514L4.12704 13.6945L4.62518 13.6514ZM4.08374 7.38961L4.58188 7.34654L4.08374 7.38961ZM9.32997 3.48096L9.82339 3.5618V3.5618L9.32997 3.48096ZM8.88818 6.17733L9.38161 6.25817V6.25817L8.88818 6.17733ZM4.46543 6.45167L4.13903 6.0729L4.13903 6.0729L4.46543 6.45167ZM5.42459 5.62514L5.75098 6.00391H5.75098L5.42459 5.62514ZM7.01204 3.18917L6.52805 3.06363V3.06363L7.01204 3.18917ZM7.32917 1.9666L7.81316 2.09215V2.09215L7.32917 1.9666ZM8.44506 1.37625L8.29214 1.85229L8.29214 1.85229L8.44506 1.37625ZM8.54171 1.40729L8.69464 0.931254L8.69464 0.931254L8.54171 1.40729ZM6.57463 4.30842L7.01566 4.544L6.57463 4.30842ZM9.26979 2.16503L8.78581 2.29057V2.29057L9.26979 2.16503ZM7.7828 1.42161L7.56575 0.971174V0.971174L7.7828 1.42161ZM2.64773 14.3138L2.14959 14.3569L2.64773 14.3138ZM2 6.82281L2.49814 6.77974C2.47507 6.51297 2.24595 6.31173 1.97844 6.32328C1.71093 6.33482 1.5 6.55505 1.5 6.82281H2ZM13.4908 8.03827L13.0204 10.7581L14.0058 10.9285L14.4761 8.20867L13.4908 8.03827ZM8.82998 14.1667H5.7309V15.1667H8.82998V14.1667ZM5.12332 13.6083L4.58188 7.34654L3.5856 7.43268L4.12704 13.6945L5.12332 13.6083ZM13.0204 10.7581C12.6825 12.7118 10.9209 14.1667 8.82998 14.1667V15.1667C11.3808 15.1667 13.5805 13.3874 14.0058 10.9285L13.0204 10.7581ZM8.83655 3.40011L8.39476 6.09649L9.38161 6.25817L9.82339 3.5618L8.83655 3.40011ZM4.79182 6.83044L5.75098 6.00391L5.09819 5.24637L4.13903 6.0729L4.79182 6.83044ZM7.49602 3.31472L7.81316 2.09215L6.84519 1.84106L6.52805 3.06363L7.49602 3.31472ZM8.29214 1.85229L8.38878 1.88333L8.69464 0.931254L8.59799 0.900207L8.29214 1.85229ZM7.01566 4.544C7.22363 4.15466 7.38511 3.74227 7.49602 3.31472L6.52805 3.06363C6.43715 3.41406 6.30466 3.75263 6.13361 4.07284L7.01566 4.544ZM8.38878 1.88333C8.59306 1.94896 8.73812 2.10674 8.78581 2.29057L9.75377 2.03948C9.6168 1.51147 9.21264 1.09766 8.69464 0.931254L8.38878 1.88333ZM7.81316 2.09215C7.8365 2.00214 7.9015 1.91943 7.99985 1.87204L7.56575 0.971174C7.21109 1.14207 6.94468 1.45752 6.84519 1.84106L7.81316 2.09215ZM7.99985 1.87204C8.08968 1.82875 8.19543 1.82122 8.29214 1.85229L8.59799 0.900207C8.25817 0.791041 7.88748 0.816142 7.56575 0.971174L7.99985 1.87204ZM9.43579 7.32281H12.8899V6.32281H9.43579V7.32281ZM3.14587 14.2708L2.49814 6.77974L1.50186 6.86588L2.14959 14.3569L3.14587 14.2708ZM2.5 14.3418V6.82281H1.5V14.3418H2.5ZM2.14959 14.3569C2.1408 14.2552 2.22097 14.1667 2.32447 14.1667V15.1667C2.80846 15.1667 3.18748 14.7519 3.14587 14.2708L2.14959 14.3569ZM9.82339 3.5618C9.90641 3.05505 9.8827 2.53652 9.75377 2.03948L8.78581 2.29057C8.87978 2.65283 8.89706 3.03077 8.83655 3.40011L9.82339 3.5618ZM5.7309 14.1667C5.41496 14.1667 5.15068 13.9247 5.12332 13.6083L4.12704 13.6945C4.19901 14.5268 4.89513 15.1667 5.7309 15.1667V14.1667ZM5.75098 6.00391C6.20422 5.61335 6.69277 5.14846 7.01566 4.544L6.13361 4.07284C5.90269 4.50512 5.535 4.86996 5.09819 5.24637L5.75098 6.00391ZM14.4761 8.20867C14.6463 7.22435 13.8894 6.32281 12.8899 6.32281V7.32281C13.2676 7.32281 13.5555 7.66395 13.4908 8.03827L14.4761 8.20867ZM2.32447 14.1667C2.42195 14.1667 2.5 14.2456 2.5 14.3418H1.5C1.5 14.7968 1.86859 15.1667 2.32447 15.1667V14.1667ZM8.39476 6.09649C8.28959 6.73839 8.78438 7.32281 9.43579 7.32281V6.32281C9.40254 6.32281 9.37595 6.29268 9.38161 6.25817L8.39476 6.09649ZM4.58188 7.34654C4.56493 7.15056 4.64317 6.95854 4.79182 6.83044L4.13903 6.0729C3.74681 6.41088 3.541 6.91687 3.5856 7.43268L4.58188 7.34654Z" fill="#2C3036"/>
</svg>
