<svg width="16" height="16" viewBox="0 0 16 16" fill="none" xmlns="http://www.w3.org/2000/svg">
<path fill-rule="evenodd" clip-rule="evenodd" d="M2.81455 2.81453C4.14091 1.4882 5.97515 0.666656 8 0.666656C10.0248 0.666656 11.8591 1.4882 13.1854 2.81454C14.5118 4.14089 15.3333 5.97514 15.3333 7.99999C15.3333 10.0248 14.5118 11.8591 13.1854 13.1854C11.8591 14.5118 10.0248 15.3333 8 15.3333C5.97515 15.3333 4.1409 14.5118 2.81455 13.1854C1.48821 11.8591 0.666664 10.0248 0.666664 7.99999C0.666664 5.97514 1.48822 4.14089 2.81455 2.81453ZM11.8047 6.47139C12.0651 6.21105 12.0651 5.78893 11.8047 5.52859C11.5444 5.26824 11.1223 5.26824 10.8619 5.52859L7.33333 9.05718L5.80474 7.52859C5.54439 7.26824 5.12228 7.26824 4.86193 7.52859C4.60158 7.78893 4.60158 8.21105 4.86193 8.4714L6.86193 10.4714C7.12228 10.7317 7.54439 10.7317 7.80474 10.4714L11.8047 6.47139Z" fill="#22E3A6"/>
</svg>
