<svg width="32" height="32" viewBox="0 0 32 32" fill="none" xmlns="http://www.w3.org/2000/svg">
<path opacity="0.32" d="M8.29611 6.13475C8.88886 5.73868 9.51125 5.39517 10.1561 5.10637C11.9853 4.2872 12.8999 3.87762 14.1166 4.66589C15.3333 5.45416 15.3333 6.74723 15.3333 9.33336V11.3334C15.3333 13.8475 15.3333 15.1046 16.1144 15.8856C16.8954 16.6667 18.1525 16.6667 20.6667 16.6667H22.6667C25.2528 16.6667 26.5459 16.6667 27.3341 17.8834C28.1224 19.1002 27.7128 20.0147 26.8937 21.8439C26.6049 22.4888 26.2613 23.1112 25.8653 23.7039C24.4735 25.7869 22.4952 27.4105 20.1807 28.3692C17.8661 29.3279 15.3193 29.5787 12.8622 29.09C10.4051 28.6012 8.14811 27.3948 6.37665 25.6234C4.60518 23.8519 3.3988 21.5949 2.91005 19.1378C2.42131 16.6807 2.67215 14.1339 3.63086 11.8194C4.58957 9.50484 6.21309 7.52658 8.29611 6.13475Z" fill="#090909"/>
<path d="M28.5947 9.42532C27.5123 6.67773 25.3223 4.4877 22.5747 3.40529C20.5193 2.59557 18.6667 4.45753 18.6667 6.66667V12C18.6667 12.7364 19.2636 13.3333 20 13.3333H25.3333C27.5425 13.3333 29.4044 11.4807 28.5947 9.42532Z" fill="#090909"/>
</svg>
