<svg width="24" height="24" viewBox="0 0 24 24" fill="none" xmlns="http://www.w3.org/2000/svg">
<path d="M7 9L9 4" stroke="#090909" stroke-width="1.5" stroke-linecap="round" stroke-linejoin="round"/>
<path d="M17 9L15 4" stroke="#090909" stroke-width="1.5" stroke-linecap="round" stroke-linejoin="round"/>
<path d="M8 13V17" stroke="#090909" stroke-width="1.5" stroke-linecap="round" stroke-linejoin="round"/>
<path d="M16 13V17" stroke="#090909" stroke-width="1.5" stroke-linecap="round" stroke-linejoin="round"/>
<path d="M12 13V17" stroke="#090909" stroke-width="1.5" stroke-linecap="round" stroke-linejoin="round"/>
<path d="M3.864 16.4552C4.40967 18.6379 4.68251 19.7292 5.49629 20.3646C6.31008 21 7.435 21 9.68486 21H14.3155C16.5654 21 17.6903 21 18.5041 20.3646C19.3179 19.7292 19.5907 18.6379 20.1364 16.4552C20.9943 13.0234 21.4233 11.3075 20.5225 10.1538C19.6217 9 17.853 9 14.3155 9H9.68486C6.14745 9 4.37875 9 3.47791 10.1538C2.94912 10.831 2.87855 11.702 3.08398 13" stroke="#090909" stroke-width="1.5" stroke-linecap="round"/>
</svg>
