<svg width="16" height="16" viewBox="0 0 16 16" fill="none" xmlns="http://www.w3.org/2000/svg">
<path d="M8.5 4.0875V2.5C8.5 2.36739 8.44732 2.24021 8.35356 2.14645C8.25979 2.05268 8.13261 2 8 2C7.86739 2 7.74022 2.05268 7.64645 2.14645C7.55268 2.24021 7.5 2.36739 7.5 2.5V4.0875C7.20873 4.1916 6.95676 4.3832 6.7786 4.63606C6.60045 4.88893 6.50482 5.19068 6.50482 5.5C6.50482 5.80932 6.60045 6.11107 6.7786 6.36394C6.95676 6.6168 7.20873 6.8084 7.5 6.9125V13.5C7.5 13.6326 7.55268 13.7598 7.64645 13.8536C7.74022 13.9473 7.86739 14 8 14C8.13261 14 8.25979 13.9473 8.35356 13.8536C8.44732 13.7598 8.5 13.6326 8.5 13.5V6.9125C8.79128 6.8084 9.04325 6.6168 9.2214 6.36394C9.39955 6.11107 9.49518 5.80932 9.49518 5.5C9.49518 5.19068 9.39955 4.88893 9.2214 4.63606C9.04325 4.3832 8.79128 4.1916 8.5 4.0875Z" fill="#090909"/>
<path d="M14 10.5C13.9996 10.1901 13.9033 9.88792 13.7243 9.63499C13.5452 9.38206 13.2922 9.1908 13 9.0875V2.5C13 2.36739 12.9473 2.24021 12.8536 2.14645C12.7598 2.05268 12.6326 2 12.5 2C12.3674 2 12.2402 2.05268 12.1464 2.14645C12.0527 2.24021 12 2.36739 12 2.5V9.0875C11.7087 9.1916 11.4568 9.3832 11.2786 9.63606C11.1004 9.88893 11.0048 10.1907 11.0048 10.5C11.0048 10.8093 11.1004 11.1111 11.2786 11.3639C11.4568 11.6168 11.7087 11.8084 12 11.9125V13.5C12 13.6326 12.0527 13.7598 12.1464 13.8536C12.2402 13.9473 12.3674 14 12.5 14C12.6326 14 12.7598 13.9473 12.8536 13.8536C12.9473 13.7598 13 13.6326 13 13.5V11.9125C13.2922 11.8092 13.5452 11.6179 13.7243 11.365C13.9033 11.1121 13.9996 10.8099 14 10.5Z" fill="#090909"/>
<path d="M4 7.0875V2.5C4 2.36739 3.94732 2.24021 3.85355 2.14645C3.75979 2.05268 3.63261 2 3.5 2C3.36739 2 3.24022 2.05268 3.14645 2.14645C3.05268 2.24021 3 2.36739 3 2.5V7.0875C2.70873 7.1916 2.45676 7.3832 2.2786 7.63606C2.10045 7.88893 2.00482 8.19068 2.00482 8.5C2.00482 8.80932 2.10045 9.11107 2.2786 9.36394C2.45676 9.6168 2.70873 9.8084 3 9.9125V13.5C3 13.6326 3.05268 13.7598 3.14645 13.8536C3.24022 13.9473 3.36739 14 3.5 14C3.63261 14 3.75979 13.9473 3.85355 13.8536C3.94732 13.7598 4 13.6326 4 13.5V9.9125C4.29128 9.8084 4.54325 9.6168 4.7214 9.36394C4.89955 9.11107 4.99518 8.80932 4.99518 8.5C4.99518 8.19068 4.89955 7.88893 4.7214 7.63606C4.54325 7.3832 4.29128 7.1916 4 7.0875Z" fill="#090909"/>
</svg>
