<svg width="16" height="16" viewBox="0 0 16 16" fill="none" xmlns="http://www.w3.org/2000/svg">
<path d="M8 5V8.5" stroke="#5B6168" stroke-width="1.5" stroke-linecap="round" stroke-linejoin="round"/>
<path d="M10.4714 1.5H5.52865C5.45831 1.49976 5.38862 1.51338 5.32355 1.54011C5.25849 1.56683 5.19934 1.60612 5.14948 1.65573L1.65573 5.14948C1.60612 5.19934 1.56683 5.25849 1.54011 5.32355C1.51338 5.38862 1.49976 5.45831 1.5 5.52865V10.4714C1.49976 10.5417 1.51338 10.6114 1.54011 10.6764C1.56683 10.7415 1.60612 10.8007 1.65573 10.8505L5.14948 14.3443C5.19934 14.3939 5.25849 14.4332 5.32355 14.4599C5.38862 14.4866 5.45831 14.5002 5.52865 14.5H10.4714C10.5417 14.5002 10.6114 14.4866 10.6764 14.4599C10.7415 14.4332 10.8007 14.3939 10.8505 14.3443L14.3443 10.8505C14.3939 10.8007 14.4332 10.7415 14.4599 10.6764C14.4866 10.6114 14.5002 10.5417 14.5 10.4714V5.52865C14.5002 5.45831 14.4866 5.38862 14.4599 5.32355C14.4332 5.25849 14.3939 5.19934 14.3443 5.14948L10.8505 1.65573C10.8007 1.60612 10.7415 1.56683 10.6764 1.54011C10.6114 1.51338 10.5417 1.49976 10.4714 1.5V1.5Z" stroke="#5B6168" stroke-miterlimit="10"/>
<path d="M8 11.5C8.41421 11.5 8.75 11.1642 8.75 10.75C8.75 10.3358 8.41421 10 8 10C7.58579 10 7.25 10.3358 7.25 10.75C7.25 11.1642 7.58579 11.5 8 11.5Z" fill="#5B6168"/>
</svg>
