<svg width="24" height="24" viewBox="0 0 24 24" fill="none" xmlns="http://www.w3.org/2000/svg">
<path d="M4 10.575C4 7.69716 4 6.25825 4.33557 5.77417C4.67114 5.29009 6.0074 4.82696 8.67992 3.90071L9.18909 3.72425C10.5822 3.24142 11.2788 3 12 3C12.7212 3 13.4178 3.24142 14.8109 3.72425L15.3201 3.90071C17.9926 4.82696 19.3289 5.29009 19.6644 5.77417C20 6.25825 20 7.69716 20 10.575C20 11.0097 20 11.4811 20 11.9922C20 17.0665 16.232 19.5289 13.8679 20.5745C13.2267 20.8582 12.906 21 12 21C11.094 21 10.7733 20.8582 10.1321 20.5745C7.76797 19.5289 4 17.0665 4 11.9922C4 11.4811 4 11.0097 4 10.575Z" stroke="#A9B3BC" stroke-width="1.5"/>
<path d="M12 13.3333V16M13.4997 12.9757C12.0651 13.7119 10.2306 13.275 9.40236 11.9998C8.57407 10.7245 9.06561 9.09391 10.5003 8.35765C11.085 8.05754 11.7363 7.95236 12.3587 8.01942C13.2632 8.11688 14.107 8.57813 14.5976 9.33356C15.0883 10.089 15.1158 10.9691 14.7585 11.7142C14.5126 12.2269 14.0845 12.6756 13.4997 12.9757Z" stroke="#A9B3BC" stroke-width="1.5" stroke-linecap="round"/>
</svg>
