<svg width="16" height="16" viewBox="0 0 16 16" fill="none" xmlns="http://www.w3.org/2000/svg">
<g clip-path="url(#clip0_27680_8440)">
<path d="M5.99999 8.00001C5.99999 8.3682 5.70151 8.66668 5.33332 8.66668C4.96513 8.66668 4.66666 8.3682 4.66666 8.00001C4.66666 7.63182 4.96513 7.33334 5.33332 7.33334C5.70151 7.33334 5.99999 7.63182 5.99999 8.00001Z" fill="#2C3036"/>
<path d="M8.66666 8.00001C8.66666 8.3682 8.36818 8.66668 7.99999 8.66668C7.6318 8.66668 7.33332 8.3682 7.33332 8.00001C7.33332 7.63182 7.6318 7.33334 7.99999 7.33334C8.36818 7.33334 8.66666 7.63182 8.66666 8.00001Z" fill="#2C3036"/>
<path d="M11.3333 8.00001C11.3333 8.3682 11.0348 8.66668 10.6667 8.66668C10.2985 8.66668 9.99999 8.3682 9.99999 8.00001C9.99999 7.63182 10.2985 7.33334 10.6667 7.33334C11.0348 7.33334 11.3333 7.63182 11.3333 8.00001Z" fill="#2C3036"/>
<path d="M7.99999 14.6667C11.6819 14.6667 14.6667 11.6819 14.6667 8.00001C14.6667 4.31811 11.6819 1.33334 7.99999 1.33334C4.31809 1.33334 1.33332 4.31811 1.33332 8.00001C1.33332 9.06646 1.58373 10.0744 2.02896 10.9683C2.14728 11.2059 2.18666 11.4774 2.11807 11.7338L1.721 13.2178C1.54863 13.862 2.138 14.4514 2.78222 14.279L4.26625 13.8819C4.52261 13.8133 4.79413 13.8527 5.03168 13.971C5.92557 14.4163 6.93354 14.6667 7.99999 14.6667Z" stroke="#2C3036"/>
</g>
<defs>
<clipPath id="clip0_27680_8440">
<rect width="16" height="16" fill="white"/>
</clipPath>
</defs>
</svg>
