<svg width="16" height="16" viewBox="0 0 16 16" fill="none" xmlns="http://www.w3.org/2000/svg">
<g clip-path="url(#clip0_26604_7755)">
<path d="M1.33333 10.6667C1.33333 8.78105 1.33333 7.83824 1.91911 7.25246C2.5049 6.66667 3.44771 6.66667 5.33333 6.66667H10.6667C12.5523 6.66667 13.4951 6.66667 14.0809 7.25246C14.6667 7.83824 14.6667 8.78105 14.6667 10.6667C14.6667 12.5523 14.6667 13.4951 14.0809 14.0809C13.4951 14.6667 12.5523 14.6667 10.6667 14.6667H5.33333C3.44771 14.6667 2.5049 14.6667 1.91911 14.0809C1.33333 13.4951 1.33333 12.5523 1.33333 10.6667Z" stroke="#090909" stroke-width="1.5"/>
<path d="M6.00001 10.6667C6.00001 11.0349 5.70153 11.3333 5.33334 11.3333C4.96515 11.3333 4.66667 11.0349 4.66667 10.6667C4.66667 10.2985 4.96515 10 5.33334 10C5.70153 10 6.00001 10.2985 6.00001 10.6667Z" fill="#090909"/>
<path d="M8.66667 10.6667C8.66667 11.0349 8.3682 11.3333 8.00001 11.3333C7.63182 11.3333 7.33334 11.0349 7.33334 10.6667C7.33334 10.2985 7.63182 10 8.00001 10C8.3682 10 8.66667 10.2985 8.66667 10.6667Z" fill="#090909"/>
<path d="M11.3333 10.6667C11.3333 11.0349 11.0349 11.3333 10.6667 11.3333C10.2985 11.3333 10 11.0349 10 10.6667C10 10.2985 10.2985 10 10.6667 10C11.0349 10 11.3333 10.2985 11.3333 10.6667Z" fill="#090909"/>
<path d="M4 6.66666V5.33333C4 3.12419 5.79086 1.33333 8 1.33333C9.86384 1.33333 11.4299 2.6081 11.874 4.33333" stroke="#090909" stroke-width="1.5" stroke-linecap="round"/>
</g>
<defs>
<clipPath id="clip0_26604_7755">
<rect width="16" height="16" fill="white"/>
</clipPath>
</defs>
</svg>
