<svg width="32" height="32" viewBox="0 0 32 32" fill="none" xmlns="http://www.w3.org/2000/svg">
<path d="M17.3333 20.5334C17.3333 17.7678 17.3333 16.385 18.212 15.5258C19.0907 14.6667 20.5049 14.6667 23.3333 14.6667C26.1618 14.6667 27.576 14.6667 28.4546 15.5258C29.3333 16.385 29.3333 17.7678 29.3333 20.5334V23.4667C29.3333 26.2323 29.3333 27.615 28.4546 28.4742C27.576 29.3334 26.1618 29.3334 23.3333 29.3334C20.5049 29.3334 19.0907 29.3334 18.212 28.4742C17.3333 27.615 17.3333 26.2323 17.3333 23.4667V20.5334Z" fill="#090909"/>
<path d="M2.66666 11.4667C2.66666 14.2323 2.66666 15.615 3.54534 16.4742C4.42402 17.3334 5.83823 17.3334 8.66666 17.3334C11.4951 17.3334 12.9093 17.3334 13.788 16.4742C14.6667 15.615 14.6667 14.2323 14.6667 11.4667V8.53335C14.6667 5.76778 14.6667 4.38499 13.788 3.52584C12.9093 2.66669 11.4951 2.66669 8.66666 2.66669C5.83823 2.66669 4.42402 2.66669 3.54534 3.52584C2.66666 4.38499 2.66666 5.76778 2.66666 8.53335V11.4667Z" fill="#090909"/>
<path d="M17.3333 7.33335C17.3333 5.88376 17.3333 5.15896 17.5617 4.58723C17.8662 3.82492 18.4502 3.21927 19.1853 2.90351C19.7366 2.66669 20.4355 2.66669 21.8333 2.66669H24.8333C26.2311 2.66669 26.9301 2.66669 27.4814 2.90351C28.2165 3.21927 28.8005 3.82492 29.105 4.58723C29.3333 5.15896 29.3333 5.88376 29.3333 7.33335C29.3333 8.78295 29.3333 9.50775 29.105 10.0795C28.8005 10.8418 28.2165 11.4474 27.4814 11.7632C26.9301 12 26.2311 12 24.8333 12H21.8333C20.4355 12 19.7366 12 19.1853 11.7632C18.4502 11.4474 17.8662 10.8418 17.5617 10.0795C17.3333 9.50775 17.3333 8.78295 17.3333 7.33335Z" fill="#090909"/>
<path d="M2.66666 24.6667C2.66666 26.1163 2.66666 26.8411 2.89502 27.4128C3.1995 28.1751 3.78352 28.7808 4.51861 29.0965C5.06992 29.3334 5.76883 29.3334 7.16666 29.3334H10.1667C11.5645 29.3334 12.2634 29.3334 12.8147 29.0965C13.5498 28.7808 14.1338 28.1751 14.4383 27.4128C14.6667 26.8411 14.6667 26.1163 14.6667 24.6667C14.6667 23.2171 14.6667 22.4923 14.4383 21.9206C14.1338 21.1583 13.5498 20.5526 12.8147 20.2368C12.2634 20 11.5645 20 10.1667 20H7.16666C5.76883 20 5.06992 20 4.51861 20.2368C3.78352 20.5526 3.1995 21.1583 2.89502 21.9206C2.66666 22.4923 2.66666 23.2171 2.66666 24.6667Z" fill="#090909"/>
</svg>
