<svg width="16" height="16" viewBox="0 0 16 16" fill="none" xmlns="http://www.w3.org/2000/svg">
<path d="M1.5 7.38889C1.5 5.08424 1.5 3.93192 2.26152 3.21596C3.02304 2.5 4.2487 2.5 6.7 2.5H9.3C11.7513 2.5 12.977 2.5 13.7385 3.21596C14.5 3.93192 14.5 5.08424 14.5 7.38889V8.61111C14.5 10.9158 14.5 12.0681 13.7385 12.784C12.977 13.5 11.7513 13.5 9.3 13.5H6.7C4.2487 13.5 3.02304 13.5 2.26152 12.784C1.5 12.0681 1.5 10.9158 1.5 8.61111V7.38889Z" stroke="#2C3036"/>
<path d="M4.66663 3.16667V1.66667" stroke="#2C3036" stroke-linecap="round"/>
<path d="M11.3334 3.16667V1.66667" stroke="#2C3036" stroke-linecap="round"/>
<path d="M1.66663 6H14.3333" stroke="#2C3036" stroke-linecap="round"/>
</svg>
