<svg width="16" height="16" viewBox="0 0 16 16" fill="none" xmlns="http://www.w3.org/2000/svg">
<path fill-rule="evenodd" clip-rule="evenodd" d="M2.33056 5.04426C2.60745 4.92559 2.92811 5.05386 3.04677 5.33074L2.54542 5.5456C3.04677 5.33074 3.04685 5.33092 3.04677 5.33074L3.04649 5.33009C3.04634 5.32973 3.04645 5.32999 3.04649 5.33009L3.04863 5.33492C3.05081 5.33984 3.05457 5.34819 3.05991 5.35976C3.0706 5.3829 3.08761 5.41883 3.11106 5.46573C3.158 5.55962 3.2305 5.69694 3.32946 5.8632C3.52801 6.19675 3.82965 6.641 4.24057 7.08353C4.33742 7.18783 4.43992 7.29164 4.54819 7.39361C4.55272 7.39773 4.55719 7.40193 4.56161 7.40622C5.37143 8.16452 6.50119 8.8183 7.99992 8.8183C8.65935 8.8183 9.24266 8.6924 9.75677 8.49004C10.4255 8.22683 10.986 7.83056 11.4448 7.39997C11.9627 6.9138 12.3432 6.39107 12.5944 5.98796C12.7195 5.78719 12.8112 5.61825 12.8707 5.50147C12.9005 5.44314 12.9221 5.39802 12.9358 5.36866C12.9426 5.35399 12.9475 5.34328 12.9504 5.33685L12.9531 5.33074C13.0718 5.05401 13.3925 4.92562 13.6693 5.04426C13.9462 5.16292 14.0744 5.48358 13.9558 5.76047L13.4544 5.5456C13.9558 5.76047 13.9558 5.76034 13.9558 5.76047L13.9546 5.76321L13.9526 5.76769L13.9464 5.78179C13.9412 5.79342 13.9339 5.80948 13.9245 5.82963C13.9057 5.86991 13.8785 5.92663 13.8425 5.99709C13.7707 6.1379 13.6639 6.33437 13.5202 6.56487C13.3006 6.91732 12.9919 7.35442 12.587 7.7952L13.0219 8.23016C13.2349 8.44317 13.2349 8.78853 13.0219 9.00154C12.8089 9.21455 12.4636 9.21455 12.2505 9.00154L11.7923 8.54327C11.4845 8.79185 11.1401 9.02632 10.7576 9.22859L11.1844 9.88444C11.3486 10.1369 11.2771 10.4748 11.0246 10.6391C10.7721 10.8034 10.4343 10.7319 10.27 10.4794L9.73246 9.65331C9.36211 9.76684 8.96646 9.8473 8.54537 9.88502V10.7274C8.54537 11.0286 8.30116 11.2728 7.99992 11.2728C7.69867 11.2728 7.45447 11.0286 7.45447 10.7274V9.8851C7.03194 9.84735 6.6364 9.76673 6.26724 9.65353L5.72986 10.4794C5.56556 10.7319 5.22769 10.8034 4.97519 10.6391C4.72269 10.4748 4.65119 10.1369 4.81548 9.88444L5.24225 9.22857C4.86037 9.02646 4.51586 8.792 4.20768 8.54315L3.74929 9.00154C3.53628 9.21455 3.19092 9.21455 2.97791 9.00154C2.7649 8.78853 2.7649 8.44317 2.97791 8.23016L3.41287 7.7952C2.95197 7.29352 2.61511 6.7959 2.39206 6.42118C2.27796 6.22949 2.19279 6.06852 2.13533 5.9536C2.10658 5.8961 2.0847 5.85 2.06956 5.81721C2.06198 5.80081 2.05608 5.78772 2.05184 5.77819L2.04673 5.76658L2.04509 5.76283L2.04451 5.76147L2.04427 5.76093C2.04417 5.76069 2.04408 5.76047 2.54542 5.5456L2.04427 5.76093C1.92561 5.48404 2.05367 5.16292 2.33056 5.04426Z" fill="#8A919A"/>
</svg>
