<svg width="16" height="16" viewBox="0 0 16 16" fill="none" xmlns="http://www.w3.org/2000/svg">
<g clip-path="url(#clip0_24804_25404)">
<rect x="2" y="1" width="14" height="14" rx="0.6" fill="#D35230"/>
<rect x="2" y="1" width="7" height="7" fill="#ED6C47"/>
<rect x="9" y="1" width="7" height="7" fill="#FF8F6B"/>
<g filter="url(#filter0_d_24804_25404)">
<path d="M7.32939 4H0.670612C0.300243 4 0 4.30024 0 4.67061V11.3294C0 11.6998 0.300243 12 0.670612 12H7.32939C7.69976 12 8 11.6998 8 11.3294V4.67061C8 4.30024 7.69976 4 7.32939 4Z" fill="#C43E1C"/>
</g>
</g>
<path d="M7.32939 4H0.670612C0.300243 4 0 4.30024 0 4.67061V11.3294C0 11.6998 0.300243 12 0.670612 12H7.32939C7.69976 12 8 11.6998 8 11.3294V4.67061C8 4.30024 7.69976 4 7.32939 4Z" fill="#C43E1C"/>
<path d="M7.32939 4H0.670612C0.300243 4 0 4.30024 0 4.67061V11.3294C0 11.6998 0.300243 12 0.670612 12H7.32939C7.69976 12 8 11.6998 8 11.3294V4.67061C8 4.30024 7.69976 4 7.32939 4Z" fill="url(#paint0_linear_24804_25404)" fill-opacity="0.5" style="mix-blend-mode:soft-light"/>
<path d="M4.03301 6.00363C4.46118 5.97663 4.88521 6.10101 5.23094 6.35502C5.37353 6.48691 5.48375 6.64993 5.55301 6.8314C5.62227 7.01286 5.6487 7.20786 5.63025 7.40121C5.64036 7.66968 5.56965 7.93499 5.42726 8.16281C5.28488 8.39063 5.07738 8.57046 4.83163 8.67901C4.55737 8.80861 4.25636 8.87154 3.95315 8.86269H3.15453V10.42H2.3V6.02759L4.03301 6.00363ZM3.15453 8.19983H3.88926C4.12208 8.21494 4.35233 8.14388 4.53614 8.00018C4.61225 7.92749 4.67166 7.83915 4.71026 7.74125C4.74887 7.64334 4.76576 7.53823 4.75975 7.43316C4.75975 6.95399 4.47225 6.70641 3.91322 6.70641H3.15453V8.19983Z" fill="white"/>
<defs>
<filter id="filter0_d_24804_25404" x="-1.5" y="2.5" width="11" height="11" filterUnits="userSpaceOnUse" color-interpolation-filters="sRGB">
<feFlood flood-opacity="0" result="BackgroundImageFix"/>
<feColorMatrix in="SourceAlpha" type="matrix" values="0 0 0 0 0 0 0 0 0 0 0 0 0 0 0 0 0 0 127 0" result="hardAlpha"/>
<feOffset/>
<feGaussianBlur stdDeviation="0.75"/>
<feComposite in2="hardAlpha" operator="out"/>
<feColorMatrix type="matrix" values="0 0 0 0 0 0 0 0 0 0 0 0 0 0 0 0 0 0 0.5 0"/>
<feBlend mode="normal" in2="BackgroundImageFix" result="effect1_dropShadow_24804_25404"/>
<feBlend mode="normal" in="SourceGraphic" in2="effect1_dropShadow_24804_25404" result="shape"/>
</filter>
<linearGradient id="paint0_linear_24804_25404" x1="1.38856" y1="3.47929" x2="6.61144" y2="12.5207" gradientUnits="userSpaceOnUse">
<stop stop-color="white" stop-opacity="0.5"/>
<stop offset="1" stop-opacity="0.7"/>
</linearGradient>
<clipPath id="clip0_24804_25404">
<rect x="2" y="0.999939" width="14" height="14" rx="7" fill="white"/>
</clipPath>
</defs>
</svg>
