<svg width="32" height="32" viewBox="0 0 32 32" fill="none" xmlns="http://www.w3.org/2000/svg">
<path d="M7.66666 9.33331C7.11438 9.33331 6.66666 9.78103 6.66666 10.3333C6.66666 10.8856 7.11438 11.3333 7.66666 11.3333H13C13.5523 11.3333 14 10.8856 14 10.3333C14 9.78103 13.5523 9.33331 13 9.33331H7.66666Z" fill="#090909"/>
<path fill-rule="evenodd" clip-rule="evenodd" d="M28.2512 10.6717C28.1682 10.6666 28.0779 10.6667 27.9842 10.6667L27.9608 10.6667H24.2866C21.2581 10.6667 18.6667 12.9814 18.6667 16C18.6667 19.0186 21.2581 21.3333 24.2866 21.3333H27.9608L27.9841 21.3333C28.0779 21.3334 28.1682 21.3334 28.2512 21.3283C29.4814 21.2529 30.5693 20.3182 30.6608 19.0126C30.6668 18.927 30.6667 18.8347 30.6667 18.7492L30.6667 18.7259V13.2741L30.6667 13.2509C30.6667 13.1654 30.6668 13.0731 30.6608 12.9875C30.5693 11.6819 29.4814 10.7471 28.2512 10.6717ZM23.9608 17.4222C24.7405 17.4222 25.3725 16.7855 25.3725 16C25.3725 15.2145 24.7405 14.5778 23.9608 14.5778C23.1811 14.5778 22.549 15.2145 22.549 16C22.549 16.7855 23.1811 17.4222 23.9608 17.4222Z" fill="#090909"/>
<path opacity="0.32" d="M28.1859 10.6687C28.1859 9.09455 28.1286 7.40596 27.1224 6.19544C27.0252 6.07858 26.9218 5.96512 26.8117 5.85499C25.8139 4.85717 24.5486 4.41435 22.9854 4.20418C21.4664 3.99996 19.5256 3.99998 17.0752 4H14.2581C11.8078 3.99998 9.86691 3.99996 8.34797 4.20418C6.78474 4.41435 5.51947 4.85718 4.52166 5.85499C3.52384 6.85281 3.08102 8.11808 2.87084 9.68131C2.66663 11.2003 2.66664 13.1411 2.66666 15.5914V15.7419C2.66664 18.1922 2.66663 20.1331 2.87085 21.652C3.08102 23.2153 3.52384 24.4805 4.52166 25.4783C5.51947 26.4762 6.78474 26.919 8.34797 27.1292C9.86691 27.3334 11.8077 27.3334 14.2581 27.3333H17.0752C19.5255 27.3334 21.4664 27.3334 22.9854 27.1292C24.5486 26.919 25.8139 26.4762 26.8117 25.4783C27.0844 25.2057 27.3159 24.9125 27.5128 24.5981C28.1134 23.6388 28.1859 22.4631 28.1859 21.3313C28.1216 21.3334 28.0538 21.3334 27.9842 21.3333L24.2866 21.3333C21.258 21.3333 18.6667 19.0186 18.6667 16C18.6667 12.9814 21.258 10.6667 24.2866 10.6667L27.9841 10.6667C28.0538 10.6666 28.1216 10.6666 28.1859 10.6687Z" fill="#090909"/>
</svg>
