<svg width="24" height="24" viewBox="0 0 24 24" fill="none" xmlns="http://www.w3.org/2000/svg">
<path d="M19 9.7041V9C19 5.13401 15.866 2 12 2C8.13401 2 5 5.13401 5 9V9.7041C5 10.5491 4.74989 11.3752 4.28117 12.0783L3.13257 13.8012C2.08343 15.3749 2.88436 17.5139 4.70907 18.0116C9.48252 19.3134 14.5175 19.3134 19.2909 18.0116C21.1157 17.5139 21.9166 15.3749 20.8674 13.8012L19.7188 12.0783C19.2501 11.3752 19 10.5491 19 9.7041Z" stroke="#090909" stroke-width="1.5"/>
<path d="M7.5 19C8.15503 20.7478 9.92246 22 12 22C14.0775 22 15.845 20.7478 16.5 19" stroke="#090909" stroke-width="1.5" stroke-linecap="round"/>
</svg>
