<svg width="16" height="16" viewBox="0 0 16 16" fill="none" xmlns="http://www.w3.org/2000/svg">
<path d="M5.9745 12.6072L6.28404 12.2146L5.9745 12.6072ZM8.00001 3.66706L7.63977 4.01379C7.73402 4.11172 7.86409 4.16706 8.00001 4.16706C8.13593 4.16706 8.266 4.11172 8.36025 4.01379L8.00001 3.66706ZM10.0255 12.6072L10.3351 12.9999L10.0255 12.6072ZM6.28404 12.2146C5.2736 11.418 4.16872 10.6401 3.2922 9.65315C2.43282 8.68546 1.83334 7.5563 1.83334 6.09137H0.833344C0.833344 7.86839 1.57367 9.224 2.54449 10.3172C3.49816 11.391 4.71386 12.2501 5.66496 12.9999L6.28404 12.2146ZM1.83334 6.09137C1.83334 4.65746 2.64359 3.45498 3.74958 2.94943C4.82406 2.45829 6.26779 2.58835 7.63977 4.01379L8.36025 3.32032C6.73234 1.62898 4.84274 1.35023 3.33385 2.03994C1.85649 2.71525 0.833344 4.28332 0.833344 6.09137H1.83334ZM5.66496 12.9999C6.00645 13.2691 6.37304 13.5562 6.74456 13.7732C7.11592 13.9902 7.53974 14.1666 8.00001 14.1666V13.1666C7.79361 13.1666 7.55077 13.0861 7.24908 12.9099C6.94756 12.7337 6.63473 12.491 6.28404 12.2146L5.66496 12.9999ZM10.3351 12.9999C11.2862 12.2501 12.5019 11.391 13.4555 10.3172C14.4263 9.224 15.1667 7.86839 15.1667 6.09137H14.1667C14.1667 7.5563 13.5672 8.68546 12.7078 9.65315C11.8313 10.6401 10.7264 11.418 9.71598 12.2146L10.3351 12.9999ZM15.1667 6.09137C15.1667 4.28332 14.1435 2.71525 12.6662 2.03994C11.1573 1.35023 9.26768 1.62898 7.63977 3.32032L8.36025 4.01379C9.73224 2.58835 11.176 2.45829 12.2504 2.94943C13.3564 3.45498 14.1667 4.65746 14.1667 6.09137H15.1667ZM9.71598 12.2146C9.36529 12.491 9.05246 12.7337 8.75094 12.9099C8.44925 13.0861 8.20641 13.1666 8.00001 13.1666V14.1666C8.46028 14.1666 8.88411 13.9902 9.25546 13.7732C9.62698 13.5562 9.99357 13.2691 10.3351 12.9999L9.71598 12.2146Z" fill="#2C3036"/>
</svg>
