<svg width="16" height="16" viewBox="0 0 16 16" fill="none" xmlns="http://www.w3.org/2000/svg">
<g clip-path="url(#clip0_27515_5620)">
<path d="M8.72445 14.2585L9.15472 14.5132L8.72445 14.2585ZM9.08584 13.6479L8.65557 13.3932L9.08584 13.6479ZM6.91415 13.6479L6.48387 13.9026L6.91415 13.6479ZM7.27555 14.2585L7.70582 14.0038L7.27555 14.2585ZM1.58708 10.609L2.04902 10.4176H2.04902L1.58708 10.609ZM5.19306 12.661L5.18445 13.1609H5.18445L5.19306 12.661ZM3.39107 12.4129L3.19972 12.8749L3.19972 12.8749L3.39107 12.4129ZM14.4129 10.609L14.8749 10.8003L14.4129 10.609ZM10.8069 12.661L10.7983 12.1611L10.8069 12.661ZM12.609 12.4129L12.8003 12.8749V12.8749L12.609 12.4129ZM13.075 1.82454L12.8138 2.25086V2.25086L13.075 1.82454ZM14.1755 2.92501L14.6018 2.66377V2.66377L14.1755 2.92501ZM2.92501 1.82454L2.66377 1.39822V1.39822L2.92501 1.82454ZM1.82454 2.92501L1.39822 2.66377H1.39822L1.82454 2.92501ZM6.26854 12.8066L6.51992 12.3744L6.51992 12.3744L6.26854 12.8066ZM9.15472 14.5132L9.51612 13.9026L8.65557 13.3932L8.29417 14.0038L9.15472 14.5132ZM6.48387 13.9026L6.84527 14.5132L7.70582 14.0038L7.34442 13.3932L6.48387 13.9026ZM8.29417 14.0038C8.16566 14.2209 7.83433 14.2209 7.70582 14.0038L6.84527 14.5132C7.36099 15.3844 8.63901 15.3844 9.15472 14.5132L8.29417 14.0038ZM7.00001 1.83334H9.00001V0.833344H7.00001V1.83334ZM14.1667 7.00001V7.66668H15.1667V7.00001H14.1667ZM1.83334 7.66668V7.00001H0.833344V7.66668H1.83334ZM0.833344 7.66668C0.833344 8.43641 0.833073 9.03874 0.86622 9.52456C0.899674 10.0149 0.968829 10.4229 1.12514 10.8003L2.04902 10.4176C1.95159 10.1824 1.89388 9.89589 1.8639 9.45649C1.83361 9.0126 1.83334 8.45009 1.83334 7.66668H0.833344ZM5.20168 12.1611C4.36472 12.1466 3.92617 12.0934 3.58241 11.951L3.19972 12.8749C3.73637 13.0972 4.34759 13.1465 5.18445 13.1609L5.20168 12.1611ZM1.12514 10.8003C1.5142 11.7396 2.26045 12.4858 3.19972 12.8749L3.58241 11.951C2.88816 11.6634 2.33658 11.1119 2.04902 10.4176L1.12514 10.8003ZM14.1667 7.66668C14.1667 8.45009 14.1664 9.0126 14.1361 9.45649C14.1061 9.89589 14.0484 10.1824 13.951 10.4176L14.8749 10.8003C15.0312 10.4229 15.1003 10.0149 15.1338 9.52456C15.1669 9.03874 15.1667 8.43641 15.1667 7.66668H14.1667ZM10.8155 13.1609C11.6524 13.1465 12.2636 13.0972 12.8003 12.8749L12.4176 11.951C12.0739 12.0934 11.6353 12.1466 10.7983 12.1611L10.8155 13.1609ZM13.951 10.4176C13.6634 11.1119 13.1119 11.6634 12.4176 11.951L12.8003 12.8749C13.7396 12.4858 14.4858 11.7396 14.8749 10.8003L13.951 10.4176ZM9.00001 1.83334C10.1008 1.83334 10.8913 1.83387 11.508 1.8925C12.1171 1.95042 12.5047 2.0615 12.8138 2.25086L13.3363 1.39822C12.8437 1.09639 12.285 0.961868 11.6026 0.896988C10.9277 0.832816 10.0815 0.833344 9.00001 0.833344V1.83334ZM15.1667 7.00001C15.1667 5.91855 15.1672 5.07234 15.103 4.39741C15.0382 3.71505 14.9036 3.15631 14.6018 2.66377L13.7492 3.18626C13.9385 3.49528 14.0496 3.8829 14.1075 4.49207C14.1662 5.10868 14.1667 5.89919 14.1667 7.00001H15.1667ZM12.8138 2.25086C13.195 2.48449 13.5155 2.80502 13.7492 3.18626L14.6018 2.66377C14.2857 2.14797 13.8521 1.7143 13.3363 1.39822L12.8138 2.25086ZM7.00001 0.833344C5.91855 0.833344 5.07234 0.832816 4.39741 0.896988C3.71505 0.961868 3.15631 1.09639 2.66377 1.39822L3.18626 2.25086C3.49528 2.0615 3.8829 1.95042 4.49207 1.8925C5.10868 1.83387 5.89919 1.83334 7.00001 1.83334V0.833344ZM1.83334 7.00001C1.83334 5.89919 1.83387 5.10868 1.8925 4.49207C1.95042 3.8829 2.0615 3.49528 2.25086 3.18626L1.39822 2.66377C1.09639 3.15631 0.961868 3.71505 0.896988 4.39741C0.832816 5.07234 0.833344 5.91855 0.833344 7.00001H1.83334ZM2.66377 1.39822C2.14797 1.7143 1.7143 2.14797 1.39822 2.66377L2.25086 3.18626C2.48449 2.80502 2.80502 2.48449 3.18626 2.25086L2.66377 1.39822ZM7.34442 13.3932C7.20907 13.1645 7.09025 12.9628 6.97472 12.8042C6.85303 12.6373 6.71345 12.4869 6.51992 12.3744L6.01716 13.2388C6.04876 13.2572 6.09182 13.2907 6.16658 13.3932C6.24749 13.5042 6.33891 13.6577 6.48387 13.9026L7.34442 13.3932ZM5.18445 13.1609C5.47718 13.1659 5.66259 13.1696 5.80393 13.1853C5.936 13.1999 5.9872 13.2214 6.01716 13.2388L6.51992 12.3744C6.32475 12.2608 6.12165 12.2144 5.91399 12.1914C5.7156 12.1694 5.47584 12.1658 5.20168 12.1611L5.18445 13.1609ZM9.51612 13.9026C9.66109 13.6577 9.75251 13.5042 9.83341 13.3932C9.90817 13.2907 9.95123 13.2572 9.98284 13.2388L9.48007 12.3744C9.28655 12.4869 9.14696 12.6373 9.02528 12.8042C8.90974 12.9628 8.79092 13.1645 8.65557 13.3932L9.51612 13.9026ZM10.7983 12.1611C10.5242 12.1658 10.2844 12.1694 10.086 12.1914C9.87834 12.2144 9.67525 12.2608 9.48007 12.3744L9.98284 13.2388C10.0128 13.2214 10.064 13.1999 10.1961 13.1853C10.3374 13.1696 10.5228 13.1659 10.8155 13.1609L10.7983 12.1611Z" fill="#090909"/>
<path d="M8 9.99999V4.66666" stroke="#090909" stroke-linecap="round"/>
<path d="M5.33334 8.66667V6" stroke="#090909" stroke-linecap="round"/>
<path d="M10.6667 8.66667V6" stroke="#090909" stroke-linecap="round"/>
</g>
<defs>
<clipPath id="clip0_27515_5620">
<rect width="16" height="16" fill="white"/>
</clipPath>
</defs>
</svg>
