<svg width="28" height="28" viewBox="0 0 28 28" fill="none" xmlns="http://www.w3.org/2000/svg">
<path d="M12.6809 25.0953L13.5414 25.6046L12.6809 25.0953ZM12.9835 24.5839L12.123 24.0745H12.123L12.9835 24.5839ZM10.3497 24.5839L11.2103 24.0745L11.2103 24.0745L10.3497 24.5839ZM10.6524 25.0953L9.79186 25.6046L9.79186 25.6046L10.6524 25.0953ZM2.68856 19.9859L3.61244 19.6032L2.68856 19.9859ZM7.33752 22.8492L7.36949 21.8497H7.36949L7.33752 22.8492ZM5.21414 22.5115L4.83145 23.4354H4.83145L5.21414 22.5115ZM20.6448 19.9859L21.5686 20.3686L20.6448 19.9859ZM15.9958 22.8492L15.9638 21.8497L15.9958 22.8492ZM18.1192 22.5115L18.5019 23.4354L18.1192 22.5115ZM18.7717 7.68768L19.2942 6.83504V6.83504L18.7717 7.68768ZM20.3123 9.22835L21.165 8.70585L21.165 8.70585L20.3123 9.22835ZM4.56167 7.68768L4.03917 6.83504V6.83504L4.56167 7.68768ZM3.02101 9.22835L2.16837 8.70585H2.16837L3.02101 9.22835ZM9.23577 23.1261L8.72664 23.9868H8.72664L9.23577 23.1261ZM13.5414 25.6046L13.8441 25.0933L12.123 24.0745L11.8203 24.5859L13.5414 25.6046ZM9.48919 25.0933L9.79186 25.6046L11.513 24.5859L11.2103 24.0745L9.48919 25.0933ZM11.8203 24.5859C11.792 24.6338 11.7426 24.6667 11.6666 24.6667C11.5907 24.6667 11.5413 24.6338 11.513 24.5859L9.79186 25.6046C10.63 27.0207 12.7033 27.0207 13.5414 25.6046L11.8203 24.5859ZM10.2667 8H13.0667V6H10.2667V8ZM20 14.9334V15.8667H22V14.9334H20ZM3.33333 15.8667V14.9334H1.33333V15.8667H3.33333ZM1.33333 15.8667C1.33333 16.9402 1.33279 17.7954 1.38005 18.4882C1.42793 19.1899 1.52818 19.7976 1.76468 20.3686L3.61244 19.6032C3.49371 19.3166 3.41634 18.9519 3.37541 18.352C3.33387 17.7432 3.33333 16.9676 3.33333 15.8667H1.33333ZM7.36949 21.8497C6.44815 21.8202 5.96481 21.7401 5.59682 21.5876L4.83145 23.4354C5.54968 23.7329 6.33672 23.8177 7.30555 23.8487L7.36949 21.8497ZM1.76468 20.3686C2.33981 21.7571 3.44296 22.8602 4.83145 23.4354L5.59682 21.5876C4.69839 21.2155 3.98458 20.5017 3.61244 19.6032L1.76468 20.3686ZM20 15.8667C20 16.9676 19.9995 17.7432 19.9579 18.352C19.917 18.9519 19.8396 19.3166 19.7209 19.6032L21.5686 20.3686C21.8051 19.7976 21.9054 19.1899 21.9533 18.4882C22.0005 17.7954 22 16.9402 22 15.8667H20ZM16.0277 23.8487C16.9966 23.8177 17.7836 23.7329 18.5019 23.4354L17.7365 21.5876C17.3685 21.7401 16.8852 21.8202 15.9638 21.8497L16.0277 23.8487ZM19.7209 19.6032C19.3487 20.5017 18.6349 21.2155 17.7365 21.5876L18.5019 23.4354C19.8904 22.8602 20.9935 21.7571 21.5686 20.3686L19.7209 19.6032ZM13.0667 8C14.6136 8 15.7036 8.00106 16.5494 8.08147C17.3803 8.16047 17.8716 8.30895 18.2492 8.54032L19.2942 6.83504C18.5495 6.37873 17.716 6.18337 16.7387 6.09045C15.7763 5.99894 14.5749 6 13.0667 6V8ZM22 14.9334C22 13.4251 22.0011 12.2237 21.9095 11.2613C21.8166 10.284 21.6213 9.45048 21.165 8.70585L19.4597 9.75085C19.691 10.1284 19.8395 10.6197 19.9185 11.4506C19.9989 12.2964 20 13.3864 20 14.9334H22ZM18.2492 8.54032C18.7425 8.84266 19.1573 9.25747 19.4597 9.75085L21.165 8.70585C20.6977 7.94337 20.0566 7.30229 19.2942 6.83504L18.2492 8.54032ZM10.2667 6C8.75842 6 7.55702 5.99894 6.59463 6.09045C5.61736 6.18337 4.78379 6.37873 4.03917 6.83504L5.08417 8.54032C5.46173 8.30895 5.95306 8.16047 6.78394 8.08147C7.6297 8.00106 8.7197 8 10.2667 8V6ZM3.33333 14.9334C3.33333 13.3864 3.33438 12.2964 3.4148 11.4506C3.4938 10.6197 3.64228 10.1284 3.87365 9.75085L2.16837 8.70585C1.71206 9.45048 1.5167 10.284 1.42378 11.2613C1.33227 12.2237 1.33333 13.4251 1.33333 14.9334H3.33333ZM4.03917 6.83504C3.27669 7.30229 2.63562 7.94337 2.16837 8.70585L3.87365 9.75085C4.17599 9.25747 4.5908 8.84266 5.08417 8.54032L4.03917 6.83504ZM11.2103 24.0745C10.9772 23.6807 10.7684 23.3259 10.5648 23.0457C10.3494 22.7491 10.0974 22.4739 9.74489 22.2654L8.72664 23.9868C8.76052 24.0068 8.82291 24.0507 8.94664 24.221C9.08224 24.4077 9.2372 24.6675 9.48919 25.0933L11.2103 24.0745ZM7.30555 23.8487C7.82748 23.8653 8.15314 23.8767 8.39865 23.9066C8.62841 23.9347 8.69893 23.9704 8.72664 23.9868L9.74489 22.2654C9.38624 22.0532 9.0116 21.9666 8.64081 21.9214C8.28576 21.878 7.85548 21.8652 7.36949 21.8497L7.30555 23.8487ZM13.8441 25.0933C14.0961 24.6675 14.251 24.4077 14.3866 24.221C14.5104 24.0507 14.5728 24.0068 14.6066 23.9868L13.5884 22.2654C13.2359 22.4739 12.9839 22.7491 12.7685 23.0457C12.5649 23.3259 12.3561 23.6807 12.123 24.0745L13.8441 25.0933ZM15.9638 21.8497C15.4778 21.8652 15.0475 21.878 14.6925 21.9214C14.3217 21.9666 13.947 22.0532 13.5884 22.2654L14.6066 23.9868C14.6344 23.9704 14.7049 23.9347 14.9346 23.9066C15.1801 23.8767 15.5058 23.8653 16.0277 23.8487L15.9638 21.8497Z" fill="#2C3036"/>
<path d="M25.3336 14.5076L26.2575 14.8903V14.8903L25.3336 14.5076ZM22.9658 16.8753L23.3485 17.7992L23.3485 17.7992L22.9658 16.8753ZM23.5775 2.97802L23.055 3.83065V3.83065L23.5775 2.97802ZM25.0219 4.42239L25.8745 3.89989V3.89989L25.0219 4.42239ZM10.2557 2.97802L9.73317 2.12538L10.2557 2.97802ZM8.8113 4.42239L7.95866 3.89989L7.95866 3.89989L8.8113 4.42239ZM15.6041 3.33331H18.2291V1.33331H15.6041V3.33331ZM24.6666 9.77084V10.6458H26.6666V9.77084H24.6666ZM24.6666 10.6458C24.6666 11.6788 24.6661 12.4034 24.6273 12.9716C24.5891 13.5308 24.5173 13.8651 24.4097 14.1249L26.2575 14.8903C26.4828 14.3461 26.5775 13.7688 26.6227 13.1077C26.6671 12.4557 26.6666 11.6514 26.6666 10.6458H24.6666ZM24.4097 14.1249C24.0671 14.9519 23.4101 15.6089 22.5832 15.9515L23.3485 17.7992C24.6656 17.2537 25.7119 16.2073 26.2575 14.8903L24.4097 14.1249ZM18.2291 3.33331C19.6806 3.33331 20.699 3.33437 21.4882 3.40941C22.2626 3.48304 22.7125 3.62077 23.055 3.83065L24.1 2.12538C23.3905 1.69056 22.5983 1.50594 21.6775 1.41839C20.7717 1.33226 19.6419 1.33331 18.2291 1.33331V3.33331ZM26.6666 9.77084C26.6666 8.35808 26.6677 7.22828 26.5815 6.32239C26.494 5.40162 26.3094 4.60945 25.8745 3.89989L24.1693 4.94489C24.3791 5.28739 24.5169 5.73732 24.5905 6.51169C24.6655 7.30095 24.6666 8.31935 24.6666 9.77084H26.6666ZM23.055 3.83065C23.5092 4.10894 23.891 4.49076 24.1693 4.94489L25.8745 3.89989C25.4313 3.17666 24.8233 2.56858 24.1 2.12538L23.055 3.83065ZM15.6041 1.33331C14.1913 1.33331 13.0615 1.33226 12.1557 1.41839C11.2349 1.50594 10.4427 1.69056 9.73317 2.12538L10.7782 3.83065C11.1207 3.62077 11.5706 3.48304 12.345 3.40941C13.1342 3.33437 14.1526 3.33331 15.6041 3.33331V1.33331ZM9.73317 2.12538C9.00993 2.56858 8.40186 3.17666 7.95866 3.89989L9.66394 4.94489C9.94223 4.49076 10.324 4.10894 10.7782 3.83065L9.73317 2.12538ZM9.20405 7.05193C9.26205 5.93677 9.40666 5.36473 9.66394 4.94489L7.95866 3.89989C7.43183 4.7596 7.26916 5.74823 7.20675 6.94803L9.20405 7.05193ZM21.0332 18.1905C21.9308 18.1607 22.6704 18.0801 23.3485 17.7992L22.5832 15.9515C22.2525 16.0884 21.8139 16.1635 20.9668 16.1916L21.0332 18.1905Z" fill="#2C3036"/>
<path d="M8.75001 15.1667C8.75001 15.811 8.22767 16.3333 7.58334 16.3333C6.93901 16.3333 6.41667 15.811 6.41667 15.1667C6.41667 14.5223 6.93901 14 7.58334 14C8.22767 14 8.75001 14.5223 8.75001 15.1667Z" fill="#2C3036"/>
<path d="M12.8333 15.1667C12.8333 15.811 12.311 16.3333 11.6667 16.3333C11.0223 16.3333 10.5 15.811 10.5 15.1667C10.5 14.5223 11.0223 14 11.6667 14C12.311 14 12.8333 14.5223 12.8333 15.1667Z" fill="#2C3036"/>
<path d="M16.9167 15.1667C16.9167 15.811 16.3943 16.3333 15.75 16.3333C15.1057 16.3333 14.5833 15.811 14.5833 15.1667C14.5833 14.5223 15.1057 14 15.75 14C16.3943 14 16.9167 14.5223 16.9167 15.1667Z" fill="#2C3036"/>
</svg>
