<svg width="28" height="26" viewBox="0 0 28 26" fill="none" xmlns="http://www.w3.org/2000/svg">
<path d="M7 11L9 6" stroke="#090909" stroke-width="1.5" stroke-linecap="round" stroke-linejoin="round"/>
<path d="M17 11L15 6" stroke="#090909" stroke-width="1.5" stroke-linecap="round" stroke-linejoin="round"/>
<path d="M8 15V19" stroke="#090909" stroke-width="1.5" stroke-linecap="round" stroke-linejoin="round"/>
<path d="M16 15V19" stroke="#090909" stroke-width="1.5" stroke-linecap="round" stroke-linejoin="round"/>
<path d="M12 15V19" stroke="#090909" stroke-width="1.5" stroke-linecap="round" stroke-linejoin="round"/>
<path d="M3.864 18.4552C4.40967 20.6379 4.68251 21.7292 5.49629 22.3646C6.31008 23 7.435 23 9.68486 23H14.3155C16.5654 23 17.6903 23 18.5041 22.3646C19.3179 21.7292 19.5907 20.6379 20.1364 18.4552C20.9943 15.0234 21.4233 13.3075 20.5225 12.1538C19.6217 11 17.853 11 14.3155 11H9.68486C6.14745 11 4.37875 11 3.47791 12.1538C2.94912 12.831 2.87855 13.702 3.08398 15" stroke="#090909" stroke-width="1.5" stroke-linecap="round"/>
<rect x="9" y="0.5" width="19" height="15" rx="7.5" fill="#EA1917"/>
<path d="M16.7908 4.92969V12H15.1209V6.49219H15.0818L13.49 7.46875V6.02344L15.2381 4.92969H16.7908ZM20.7756 12.0977C19.2326 12.0977 17.8264 11.1797 17.8264 8.5918C17.8361 6.24805 19.008 4.83203 20.8146 4.83203C22.299 4.83203 23.3049 5.7793 23.4416 6.96094H21.801C21.6936 6.50195 21.3127 6.25781 20.8146 6.25781C19.9162 6.25781 19.4768 7.06836 19.4768 8.35742H19.5256C19.8283 7.72266 20.5412 7.3418 21.3322 7.3418C22.6115 7.3418 23.5197 8.28906 23.5197 9.60742C23.5197 11.082 22.4064 12.0977 20.7756 12.0977ZM20.7658 10.8086C21.4201 10.8086 21.9084 10.3203 21.8986 9.65625C21.9084 9.00195 21.4299 8.51367 20.7756 8.51367C20.1213 8.51367 19.633 9.01172 19.633 9.66602C19.633 10.3008 20.1115 10.8086 20.7658 10.8086Z" fill="white"/>
</svg>
