<svg width="17" height="16" viewBox="0 0 17 16" fill="none" xmlns="http://www.w3.org/2000/svg">
<g clip-path="url(#clip0_1164_1815)">
<path d="M1.83325 6.09136C1.83325 9.33332 4.51287 11.0609 6.47441 12.6072C7.16659 13.1529 7.83325 13.6666 8.49992 13.6666C9.16659 13.6666 9.83325 13.1529 10.5254 12.6072C12.487 11.0609 15.1666 9.33332 15.1666 6.09136C15.1666 2.84941 11.4998 0.550274 8.49992 3.66705C5.50003 0.550274 1.83325 2.84941 1.83325 6.09136Z" fill="white"/>
<path d="M6.47441 12.6072L7.09349 11.8219H7.09349L6.47441 12.6072ZM8.49992 3.66705L7.77943 4.36052C7.96795 4.55638 8.22808 4.66705 8.49992 4.66705C8.77176 4.66705 9.03189 4.55638 9.22041 4.36052L8.49992 3.66705ZM10.5254 12.6072L11.1445 13.3925L10.5254 12.6072ZM7.09349 11.8219C6.05339 11.002 5.00391 10.2647 4.16597 9.32113C3.3623 8.41618 2.83325 7.40025 2.83325 6.09136H0.833252C0.833252 8.02443 1.64401 9.49327 2.67054 10.6492C3.66279 11.7665 4.93389 12.6662 5.85532 13.3925L7.09349 11.8219ZM2.83325 6.09136C2.83325 4.84452 3.53705 3.82484 4.45736 3.40417C5.31462 3.01231 6.53541 3.06803 7.77943 4.36052L9.22041 2.97359C7.46453 1.14929 5.35199 0.796193 3.6259 1.58519C1.96284 2.34538 0.833252 4.09625 0.833252 6.09136H2.83325ZM5.85532 13.3925C6.19221 13.6581 6.58569 13.9674 6.9922 14.2049C7.3984 14.4423 7.91272 14.6666 8.49992 14.6666V12.6666C8.42045 12.6666 8.26811 12.6341 8.00126 12.4781C7.73472 12.3224 7.44878 12.102 7.09349 11.8219L5.85532 13.3925ZM11.1445 13.3925C12.0659 12.6662 13.337 11.7665 14.3293 10.6492C15.3558 9.49327 16.1666 8.02443 16.1666 6.09136H14.1666C14.1666 7.40025 13.6375 8.41618 12.8339 9.32113C11.9959 10.2647 10.9465 11.002 9.90635 11.8219L11.1445 13.3925ZM16.1666 6.09136C16.1666 4.09625 15.037 2.34538 13.3739 1.58519C11.6479 0.796193 9.53531 1.14929 7.77943 2.97359L9.22041 4.36052C10.4644 3.06803 11.6852 3.01231 12.5425 3.40417C13.4628 3.82484 14.1666 4.84452 14.1666 6.09136H16.1666ZM9.90635 11.8219C9.55106 12.102 9.26511 12.3224 8.99858 12.4781C8.73173 12.6341 8.57939 12.6666 8.49992 12.6666V14.6666C9.08712 14.6666 9.60144 14.4423 10.0076 14.2049C10.4141 13.9674 10.8076 13.6581 11.1445 13.3925L9.90635 11.8219Z" fill="white"/>
</g>
<defs>
<clipPath id="clip0_1164_1815">
<rect x="0.5" width="16" height="16" rx="5" fill="white"/>
</clipPath>
</defs>
</svg>
